<?xml version="1.0" encoding="utf-8" standalone="no"?>
<!DOCTYPE svg PUBLIC "-//W3C//DTD SVG 1.1//EN"
  "http://www.w3.org/Graphics/SVG/1.1/DTD/svg11.dtd">
<svg xmlns:xlink="http://www.w3.org/1999/xlink" width="360pt" height="360pt" viewBox="0 0 360 360" xmlns="http://www.w3.org/2000/svg" version="1.1">
 <metadata>
  <rdf:RDF xmlns:dc="http://purl.org/dc/elements/1.1/" xmlns:cc="http://creativecommons.org/ns#" xmlns:rdf="http://www.w3.org/1999/02/22-rdf-syntax-ns#">
   <cc:Work>
    <dc:type rdf:resource="http://purl.org/dc/dcmitype/StillImage"/>
    <dc:date>2024-11-15T23:56:12.128330</dc:date>
    <dc:format>image/svg+xml</dc:format>
    <dc:creator>
     <cc:Agent>
      <dc:title>Matplotlib v3.9.2, https://matplotlib.org/</dc:title>
     </cc:Agent>
    </dc:creator>
   </cc:Work>
  </rdf:RDF>
 </metadata>
 <defs>
  <style type="text/css">*{stroke-linejoin: round; stroke-linecap: butt}</style>
 </defs>
 <g id="figure_1">
  <g id="patch_1">
   <path d="M 0 360 
L 360 360 
L 360 0 
L 0 0 
L 0 360 
z
" style="fill: none"/>
  </g>
  <g id="axes_1">
   <g id="patch_2">
    <path d="M 45 320.4 
L 324 320.4 
L 324 43.2 
L 45 43.2 
L 45 320.4 
z
" style="fill: none"/>
   </g>
   <g id="matplotlib.axis_1">
    <g id="xtick_1">
     <g id="line2d_1">
      <defs>
       <path id="me7416d9c8e" d="M 0 0 
L 0 3.5 
" style="stroke: #000000; stroke-width: 0.8"/>
      </defs>
      <g>
       <use xlink:href="#me7416d9c8e" x="119.4" y="320.4" style="stroke: #000000; stroke-width: 0.8"/>
      </g>
     </g>
     <g id="text_1">
      <!-- 0 -->
      <g transform="translate(112.40125 344.116562) scale(0.22 -0.22)">
       <defs>
        <path id="DejaVuSans-30" d="M 2034 4250 
Q 1547 4250 1301 3770 
Q 1056 3291 1056 2328 
Q 1056 1369 1301 889 
Q 1547 409 2034 409 
Q 2525 409 2770 889 
Q 3016 1369 3016 2328 
Q 3016 3291 2770 3770 
Q 2525 4250 2034 4250 
z
M 2034 4750 
Q 2819 4750 3233 4129 
Q 3647 3509 3647 2328 
Q 3647 1150 3233 529 
Q 2819 -91 2034 -91 
Q 1250 -91 836 529 
Q 422 1150 422 2328 
Q 422 3509 836 4129 
Q 1250 4750 2034 4750 
z
" transform="scale(0.015625)"/>
       </defs>
       <use xlink:href="#DejaVuSans-30"/>
      </g>
     </g>
    </g>
    <g id="xtick_2">
     <g id="line2d_2">
      <g>
       <use xlink:href="#me7416d9c8e" x="212.4" y="320.4" style="stroke: #000000; stroke-width: 0.8"/>
      </g>
     </g>
     <g id="text_2">
      <!-- 2 -->
      <g transform="translate(205.40125 344.116562) scale(0.22 -0.22)">
       <defs>
        <path id="DejaVuSans-32" d="M 1228 531 
L 3431 531 
L 3431 0 
L 469 0 
L 469 531 
Q 828 903 1448 1529 
Q 2069 2156 2228 2338 
Q 2531 2678 2651 2914 
Q 2772 3150 2772 3378 
Q 2772 3750 2511 3984 
Q 2250 4219 1831 4219 
Q 1534 4219 1204 4116 
Q 875 4013 500 3803 
L 500 4441 
Q 881 4594 1212 4672 
Q 1544 4750 1819 4750 
Q 2544 4750 2975 4387 
Q 3406 4025 3406 3419 
Q 3406 3131 3298 2873 
Q 3191 2616 2906 2266 
Q 2828 2175 2409 1742 
Q 1991 1309 1228 531 
z
" transform="scale(0.015625)"/>
       </defs>
       <use xlink:href="#DejaVuSans-32"/>
      </g>
     </g>
    </g>
    <g id="xtick_3">
     <g id="line2d_3">
      <g>
       <use xlink:href="#me7416d9c8e" x="305.4" y="320.4" style="stroke: #000000; stroke-width: 0.8"/>
      </g>
     </g>
     <g id="text_3">
      <!-- 4 -->
      <g transform="translate(298.40125 344.116562) scale(0.22 -0.22)">
       <defs>
        <path id="DejaVuSans-34" d="M 2419 4116 
L 825 1625 
L 2419 1625 
L 2419 4116 
z
M 2253 4666 
L 3047 4666 
L 3047 1625 
L 3713 1625 
L 3713 1100 
L 3047 1100 
L 3047 0 
L 2419 0 
L 2419 1100 
L 313 1100 
L 313 1709 
L 2253 4666 
z
" transform="scale(0.015625)"/>
       </defs>
       <use xlink:href="#DejaVuSans-34"/>
      </g>
     </g>
    </g>
    <g id="text_4">
     <!-- $m$ -->
     <g transform="translate(169.8 375.487188) scale(0.3 -0.3)">
      <defs>
       <path id="DejaVuSans-Oblique-6d" d="M 5747 2113 
L 5338 0 
L 4763 0 
L 5166 2094 
Q 5191 2228 5203 2325 
Q 5216 2422 5216 2491 
Q 5216 2772 5059 2928 
Q 4903 3084 4622 3084 
Q 4203 3084 3875 2770 
Q 3547 2456 3450 1953 
L 3066 0 
L 2491 0 
L 2900 2094 
Q 2925 2209 2937 2307 
Q 2950 2406 2950 2484 
Q 2950 2769 2794 2926 
Q 2638 3084 2363 3084 
Q 1938 3084 1609 2770 
Q 1281 2456 1184 1953 
L 800 0 
L 225 0 
L 909 3500 
L 1484 3500 
L 1375 2956 
Q 1609 3263 1923 3423 
Q 2238 3584 2597 3584 
Q 2978 3584 3223 3384 
Q 3469 3184 3519 2828 
Q 3781 3197 4126 3390 
Q 4472 3584 4856 3584 
Q 5306 3584 5551 3325 
Q 5797 3066 5797 2591 
Q 5797 2488 5784 2364 
Q 5772 2241 5747 2113 
z
" transform="scale(0.015625)"/>
      </defs>
      <use xlink:href="#DejaVuSans-Oblique-6d"/>
     </g>
    </g>
   </g>
   <g id="matplotlib.axis_2">
    <g id="ytick_1">
     <g id="line2d_4">
      <defs>
       <path id="m47907b599c" d="M 0 0 
L -3.5 0 
" style="stroke: #000000; stroke-width: 0.8"/>
      </defs>
      <g>
       <use xlink:href="#m47907b599c" x="45" y="315.78" style="stroke: #000000; stroke-width: 0.8"/>
      </g>
     </g>
     <g id="text_5">
      <!-- −6 -->
      <g transform="translate(5.567188 324.138281) scale(0.22 -0.22)">
       <defs>
        <path id="DejaVuSans-2212" d="M 678 2272 
L 4684 2272 
L 4684 1741 
L 678 1741 
L 678 2272 
z
" transform="scale(0.015625)"/>
        <path id="DejaVuSans-36" d="M 2113 2584 
Q 1688 2584 1439 2293 
Q 1191 2003 1191 1497 
Q 1191 994 1439 701 
Q 1688 409 2113 409 
Q 2538 409 2786 701 
Q 3034 994 3034 1497 
Q 3034 2003 2786 2293 
Q 2538 2584 2113 2584 
z
M 3366 4563 
L 3366 3988 
Q 3128 4100 2886 4159 
Q 2644 4219 2406 4219 
Q 1781 4219 1451 3797 
Q 1122 3375 1075 2522 
Q 1259 2794 1537 2939 
Q 1816 3084 2150 3084 
Q 2853 3084 3261 2657 
Q 3669 2231 3669 1497 
Q 3669 778 3244 343 
Q 2819 -91 2113 -91 
Q 1303 -91 875 529 
Q 447 1150 447 2328 
Q 447 3434 972 4092 
Q 1497 4750 2381 4750 
Q 2619 4750 2861 4703 
Q 3103 4656 3366 4563 
z
" transform="scale(0.015625)"/>
       </defs>
       <use xlink:href="#DejaVuSans-2212"/>
       <use xlink:href="#DejaVuSans-36" x="83.789062"/>
      </g>
     </g>
    </g>
    <g id="ytick_2">
     <g id="line2d_5">
      <g>
       <use xlink:href="#m47907b599c" x="45" y="269.58" style="stroke: #000000; stroke-width: 0.8"/>
      </g>
     </g>
     <g id="text_6">
      <!-- −5 -->
      <g transform="translate(5.567188 277.938281) scale(0.22 -0.22)">
       <defs>
        <path id="DejaVuSans-35" d="M 691 4666 
L 3169 4666 
L 3169 4134 
L 1269 4134 
L 1269 2991 
Q 1406 3038 1543 3061 
Q 1681 3084 1819 3084 
Q 2600 3084 3056 2656 
Q 3513 2228 3513 1497 
Q 3513 744 3044 326 
Q 2575 -91 1722 -91 
Q 1428 -91 1123 -41 
Q 819 9 494 109 
L 494 744 
Q 775 591 1075 516 
Q 1375 441 1709 441 
Q 2250 441 2565 725 
Q 2881 1009 2881 1497 
Q 2881 1984 2565 2268 
Q 2250 2553 1709 2553 
Q 1456 2553 1204 2497 
Q 953 2441 691 2322 
L 691 4666 
z
" transform="scale(0.015625)"/>
       </defs>
       <use xlink:href="#DejaVuSans-2212"/>
       <use xlink:href="#DejaVuSans-35" x="83.789062"/>
      </g>
     </g>
    </g>
    <g id="ytick_3">
     <g id="line2d_6">
      <g>
       <use xlink:href="#m47907b599c" x="45" y="223.38" style="stroke: #000000; stroke-width: 0.8"/>
      </g>
     </g>
     <g id="text_7">
      <!-- −4 -->
      <g transform="translate(5.567188 231.738281) scale(0.22 -0.22)">
       <use xlink:href="#DejaVuSans-2212"/>
       <use xlink:href="#DejaVuSans-34" x="83.789062"/>
      </g>
     </g>
    </g>
    <g id="ytick_4">
     <g id="line2d_7">
      <g>
       <use xlink:href="#m47907b599c" x="45" y="177.18" style="stroke: #000000; stroke-width: 0.8"/>
      </g>
     </g>
     <g id="text_8">
      <!-- −3 -->
      <g transform="translate(5.567188 185.538281) scale(0.22 -0.22)">
       <defs>
        <path id="DejaVuSans-33" d="M 2597 2516 
Q 3050 2419 3304 2112 
Q 3559 1806 3559 1356 
Q 3559 666 3084 287 
Q 2609 -91 1734 -91 
Q 1441 -91 1130 -33 
Q 819 25 488 141 
L 488 750 
Q 750 597 1062 519 
Q 1375 441 1716 441 
Q 2309 441 2620 675 
Q 2931 909 2931 1356 
Q 2931 1769 2642 2001 
Q 2353 2234 1838 2234 
L 1294 2234 
L 1294 2753 
L 1863 2753 
Q 2328 2753 2575 2939 
Q 2822 3125 2822 3475 
Q 2822 3834 2567 4026 
Q 2313 4219 1838 4219 
Q 1578 4219 1281 4162 
Q 984 4106 628 3988 
L 628 4550 
Q 988 4650 1302 4700 
Q 1616 4750 1894 4750 
Q 2613 4750 3031 4423 
Q 3450 4097 3450 3541 
Q 3450 3153 3228 2886 
Q 3006 2619 2597 2516 
z
" transform="scale(0.015625)"/>
       </defs>
       <use xlink:href="#DejaVuSans-2212"/>
       <use xlink:href="#DejaVuSans-33" x="83.789062"/>
      </g>
     </g>
    </g>
    <g id="ytick_5">
     <g id="line2d_8">
      <g>
       <use xlink:href="#m47907b599c" x="45" y="130.98" style="stroke: #000000; stroke-width: 0.8"/>
      </g>
     </g>
     <g id="text_9">
      <!-- −2 -->
      <g transform="translate(5.567188 139.338281) scale(0.22 -0.22)">
       <use xlink:href="#DejaVuSans-2212"/>
       <use xlink:href="#DejaVuSans-32" x="83.789062"/>
      </g>
     </g>
    </g>
    <g id="ytick_6">
     <g id="line2d_9">
      <g>
       <use xlink:href="#m47907b599c" x="45" y="84.78" style="stroke: #000000; stroke-width: 0.8"/>
      </g>
     </g>
     <g id="text_10">
      <!-- −1 -->
      <g transform="translate(5.567188 93.138281) scale(0.22 -0.22)">
       <defs>
        <path id="DejaVuSans-31" d="M 794 531 
L 1825 531 
L 1825 4091 
L 703 3866 
L 703 4441 
L 1819 4666 
L 2450 4666 
L 2450 531 
L 3481 531 
L 3481 0 
L 794 0 
L 794 531 
z
" transform="scale(0.015625)"/>
       </defs>
       <use xlink:href="#DejaVuSans-2212"/>
       <use xlink:href="#DejaVuSans-31" x="83.789062"/>
      </g>
     </g>
    </g>
    <g id="text_11">
     <!-- $c$ -->
     <g transform="translate(-4.671875 190.05) rotate(-90) scale(0.3 -0.3)">
      <defs>
       <path id="DejaVuSans-Oblique-63" d="M 3431 3366 
L 3316 2797 
Q 3109 2947 2876 3022 
Q 2644 3097 2394 3097 
Q 2119 3097 1870 3000 
Q 1622 2903 1453 2725 
Q 1184 2453 1037 2087 
Q 891 1722 891 1331 
Q 891 859 1127 628 
Q 1363 397 1844 397 
Q 2081 397 2348 469 
Q 2616 541 2906 684 
L 2797 116 
Q 2547 13 2283 -39 
Q 2019 -91 1741 -91 
Q 1044 -91 669 257 
Q 294 606 294 1253 
Q 294 1797 489 2255 
Q 684 2713 1069 3078 
Q 1331 3328 1684 3456 
Q 2038 3584 2456 3584 
Q 2700 3584 2940 3529 
Q 3181 3475 3431 3366 
z
" transform="scale(0.015625)"/>
      </defs>
      <use xlink:href="#DejaVuSans-Oblique-63"/>
     </g>
    </g>
   </g>
   <g id="QuadContourSet_1">
    <path clip-path="url(#pb8bffd86ac)" style="fill: none; stroke: #440154; stroke-width: 1.5"/>
    <path d="M 192.630923 163.63489 
L 192.501894 166.4 
L 192.044514 169.2 
L 191.545455 170.956803 
L 191.097674 172 
L 189.354729 174.8 
L 188.727273 175.563139 
L 185.909091 177.207176 
L 183.090909 177.145654 
L 180.272727 175.52295 
L 179.619958 174.8 
L 177.524339 172 
L 177.454545 171.880599 
L 176.401783 169.2 
L 175.616191 166.4 
L 175.160852 163.6 
L 175.054006 160.8 
L 175.315267 158 
L 175.938661 155.316586 
" clip-path="url(#pb8bffd86ac)" style="fill: none; stroke: #450457; stroke-width: 1.5"/>
    <path d="M 173.000892 173.380691 
L 172.453279 172 
L 171.818182 169.976798 
L 171.62165 169.2 
L 171.110625 166.4 
L 170.797826 163.6 
L 170.689585 160.8 
L 170.792506 158 
L 171.113481 155.2 
L 171.659707 152.4 
L 171.818182 151.825343 
L 172.613967 149.6 
L 173.928275 146.8 
L 174.636364 145.584095 
L 175.956142 144 
L 177.454545 142.502541 
L 179.743736 141.2 
L 180.272727 140.942163 
L 183.090909 140.568829 
L 185.909091 141.163312 
L 185.976291 141.2 
L 188.727273 142.876212 
L 189.887724 144 
L 191.545455 145.816162 
L 192.200553 146.8 
L 193.812206 149.6 
L 194.363636 150.740586 
L 194.993134 152.4 
L 195.8451 155.2 
L 196.484533 158 
L 196.903871 160.8 
L 197.095188 163.6 
L 197.050176 166.4 
L 196.760116 169.2 
L 196.215854 172 
L 195.407777 174.8 
L 194.813703 176.338025 
" clip-path="url(#pb8bffd86ac)" style="fill: none; stroke: #46075a; stroke-width: 1.5"/>
    <path d="M 164.832393 156.575134 
L 164.919965 155.2 
L 165.252986 152.4 
L 165.744302 149.6 
L 166.181818 147.720059 
L 166.436915 146.8 
L 167.406975 144 
L 168.581092 141.2 
L 169 140.346902 
L 170.187503 138.4 
L 171.818182 136.084088 
L 172.267943 135.6 
L 174.636364 133.351542 
L 175.49011 132.8 
L 177.454545 131.664838 
L 180.272727 130.790573 
L 183.090909 130.647917 
L 185.909091 131.209152 
L 188.727273 132.447943 
L 189.246591 132.8 
L 191.545455 134.485381 
L 192.676917 135.6 
L 194.363636 137.408946 
L 195.099503 138.4 
L 196.992128 141.2 
L 197.181818 141.512763 
L 198.432742 144 
L 199.683547 146.8 
L 200 147.617872 
L 200.654198 149.6 
L 201.434481 152.4 
L 202.069629 155.2 
L 202.556155 158 
L 202.818182 160.198413 
L 202.880504 160.8 
L 203.034059 163.6 
L 203.049818 166.4 
L 202.924843 169.2 
L 202.818182 170.31613 
L 202.629351 172 
L 202.144327 174.8 
L 201.482863 177.6 
L 200.640432 180.4 
L 200 182.149869 
L 199.532482 183.2 
L 198.059363 186 
L 197.181818 187.439969 
L 196.120977 188.8 
L 194.363636 190.777021 
L 193.34772 191.6 
L 191.545455 192.900682 
L 188.727273 194.147307 
L 187.255815 194.4 
L 185.909091 194.608795 
L 183.388853 194.4 
L 183.090909 194.373372 
L 180.272727 193.41119 
L 177.454545 191.768642 
L 177.250074 191.6 
L 174.636364 189.265062 
L 174.232158 188.8 
L 172.149175 186.183508 
" clip-path="url(#pb8bffd86ac)" style="fill: none; stroke: #470d60; stroke-width: 1.5"/>
    <path d="M 185.909091 208.430974 
L 185.600123 208.4 
L 183.090909 208.134871 
L 180.272727 207.350792 
L 177.454545 206.093509 
L 176.650096 205.6 
L 174.636364 204.295439 
L 172.815086 202.8 
L 171.818182 201.932886 
L 169.983187 200 
L 169 198.899046 
L 167.707849 197.2 
L 166.181818 195.058356 
L 165.773322 194.4 
L 164.158391 191.6 
L 163.363636 190.110846 
L 162.744587 188.8 
L 161.532527 186 
L 160.545455 183.495205 
L 160.441199 183.2 
L 159.556398 180.4 
L 158.772458 177.6 
L 158.091077 174.8 
L 157.727273 173.03116 
L 157.53544 172 
L 157.112144 169.2 
L 156.786267 166.4 
L 156.559315 163.6 
L 156.432827 160.8 
L 156.408373 158 
L 156.487556 155.2 
L 156.672013 152.4 
L 156.963415 149.6 
L 157.363471 146.8 
L 157.727273 144.801368 
L 157.891299 144 
L 158.588254 141.2 
L 159.413778 138.4 
L 160.370221 135.6 
L 160.545455 135.147451 
L 161.586354 132.8 
L 162.983333 130 
L 163.363636 129.312486 
L 164.732217 127.2 
L 166.181818 125.170977 
L 166.8464 124.4 
L 169 122.114608 
L 169.611169 121.6 
L 171.818182 119.887658 
L 173.713416 118.8 
L 174.636364 118.308905 
L 177.454545 117.325104 
L 180.272727 116.852246 
L 183.090909 116.87681 
L 185.909091 117.38575 
L 188.727273 118.366472 
L 189.570409 118.8 
L 191.545455 119.871629 
L 193.967997 121.6 
L 194.363636 121.898772 
L 197.035831 124.4 
L 197.181818 124.545131 
L 199.419901 127.2 
L 200 127.933682 
L 201.406082 130 
L 202.818182 132.222276 
L 203.140381 132.8 
L 204.584408 135.6 
L 205.636364 137.813835 
L 205.884361 138.4 
L 206.961075 141.2 
L 207.933482 144 
L 208.454545 145.688225 
L 208.76343 146.8 
L 209.441267 149.6 
L 210.019923 152.4 
L 210.24859 153.73984 
M 209.001767 184.518842 
L 208.606387 186 
L 208.454545 186.490733 
L 207.643196 188.8 
L 206.517612 191.6 
L 205.636364 193.544763 
L 205.187618 194.4 
L 203.552041 197.2 
L 202.818182 198.338118 
L 201.543799 200 
L 200 201.836903 
L 199.001635 202.8 
L 197.181818 204.414163 
L 195.43779 205.6 
L 194.363636 206.275931 
L 191.545455 207.517484 
L 188.727273 208.231731 
L 186.373972 208.4 
L 185.909091 208.430974 
" clip-path="url(#pb8bffd86ac)" style="fill: none; stroke: #48186a; stroke-width: 1.5"/>
    <path d="M 149.412256 188.476405 
L 148.690797 186 
L 147.294603 180.4 
L 146.204295 174.8 
L 145.446978 169.2 
L 144.969061 163.6 
L 144.776727 158 
L 144.876342 152.4 
L 145.274463 146.8 
L 145.977844 141.2 
L 146.454545 138.357009 
L 147.715846 132.8 
L 149.34329 127.2 
L 151.504677 121.6 
L 152.801765 118.8 
L 154.909091 114.87194 
L 157.727273 110.599775 
L 157.880807 110.4 
L 160.545455 107.176726 
L 163.363636 104.404818 
L 166.457401 102 
L 169 100.444803 
L 171.818182 99.11248 
L 174.636364 98.199057 
L 177.454545 97.642172 
L 180.272727 97.435208 
L 183.090909 97.571709 
L 185.909091 98.045381 
L 189.596527 99.2 
L 191.545455 100.014416 
L 195.085116 102 
L 197.181818 103.428623 
L 200 105.728179 
L 202.818182 108.476626 
L 205.636364 111.734002 
L 208.734514 116 
L 211.272727 120.151578 
L 213.482518 124.4 
L 214.769827 127.2 
L 217.010101 132.8 
L 218.800712 138.4 
L 219.727273 141.74977 
L 220.850533 146.8 
L 221.823242 152.4 
L 222.545455 158.43025 
L 222.877996 163.6 
L 222.965045 169.2 
L 222.767264 174.8 
L 222.257756 180.4 
L 221.409943 186 
L 220.233217 191.6 
L 219.50118 194.4 
L 217.670144 200 
L 216.583616 202.8 
L 214.090909 208.10112 
L 212.284489 211.2 
L 210.424253 214 
L 208.275401 216.8 
L 205.636364 219.648052 
L 202.404946 222.4 
L 200 224.044454 
L 197.181818 225.558684 
L 194.363636 226.649006 
L 191.545455 227.374894 
L 188.727273 227.74322 
L 185.909091 227.760681 
L 183.090909 227.43381 
L 180.272727 226.768977 
L 177.454545 225.772398 
L 174.636364 224.416538 
L 171.404129 222.4 
L 167.887609 219.6 
L 166.181818 218.036402 
L 163.886183 215.588309 
L 163.886183 215.588309 
" clip-path="url(#pb8bffd86ac)" style="fill: none; stroke: #472d7b; stroke-width: 1.5"/>
    <path d="M 141.482448 97.220113 
L 143.636364 93.486 
L 146.454545 89.307104 
L 149.272727 85.703858 
L 152.296497 82.4 
L 155.315146 79.6 
L 158.959966 76.8 
L 160.545455 75.731226 
L 163.586512 74 
L 166.181818 72.798341 
L 169 71.755737 
L 171.818182 70.979303 
L 174.636364 70.467674 
L 177.454545 70.200479 
L 180.272727 70.17456 
L 183.090909 70.38681 
L 185.909091 70.834176 
L 188.727273 71.523341 
L 191.545455 72.459874 
L 195.107682 74 
L 197.181818 75.061089 
L 200.090932 76.8 
L 203.959662 79.6 
L 207.256586 82.4 
L 208.454545 83.50213 
L 211.272727 86.383984 
L 214.090909 89.628059 
L 217.144708 93.6 
L 219.727273 97.384483 
L 222.545455 102.018104 
L 225.501376 107.6 
L 228.181818 113.436343 
L 230.308464 118.8 
L 231.322027 121.6 
L 233.120699 127.2 
L 234.666497 132.8 
L 235.97695 138.4 
L 237.062817 144 
L 237.920172 149.6 
L 238.579501 155.2 
L 239.03769 160.8 
L 239.291556 166.4 
L 239.337852 172 
L 239.173259 177.6 
L 238.794389 183.2 
L 238.197779 188.8 
L 237.379894 194.4 
L 236.320069 200 
L 234.975754 205.6 
L 233.358333 211.2 
L 231.402962 216.8 
L 230.278846 219.6 
L 227.725379 225.2 
L 225.363636 229.605053 
L 222.545455 234.112009 
L 219.727273 237.957491 
L 216.909091 241.273671 
L 214.090909 244.126903 
L 211.272727 246.572898 
L 208.454545 248.658769 
L 205.636364 250.424635 
L 202.818182 251.862951 
L 199.487693 253.2 
L 197.181818 253.919295 
L 194.363636 254.547666 
L 191.545455 254.927896 
L 188.727273 255.063227 
L 185.909091 254.956847 
L 183.090909 254.611888 
L 180.272727 254.031428 
L 177.404763 253.2 
L 174.636364 252.144371 
L 171.021141 250.4 
L 169 249.263336 
L 166.181818 247.437325 
L 162.743895 244.8 
L 159.592344 242 
L 156.814426 239.2 
L 154.322224 236.4 
L 152.053397 233.6 
L 149.272727 229.745075 
L 146.358225 225.2 
L 143.23924 219.6 
L 140.527188 214 
L 138 207.967433 
L 136.138285 202.8 
L 134.370315 197.2 
L 132.854073 191.6 
L 131.58403 186 
L 130.536057 180.4 
L 129.545455 173.652837 
L 129.067963 169.2 
L 128.651351 163.6 
L 128.433934 158 
L 128.418794 152.4 
L 128.609075 146.8 
L 129.007986 141.2 
L 129.587339 135.883029 
L 129.587339 135.883029 
" clip-path="url(#pb8bffd86ac)" style="fill: none; stroke: #3b528b; stroke-width: 1.5"/>
    <path d="M 209.909837 43.2 
L 211.272727 44.195887 
L 214.090909 46.435609 
L 216.909091 48.888687 
L 219.757553 51.6 
L 222.545455 54.48969 
L 225.363636 57.668001 
L 229.460984 62.8 
L 231.518816 65.6 
L 235.26837 71.2 
L 237.00508 74 
L 240.19129 79.6 
L 243.071707 85.2 
L 245.681395 90.8 
L 248.050257 96.4 
L 250.727273 103.510681 
L 253.008818 110.4 
L 254.653551 116 
L 256.363636 122.527747 
L 258.026222 130 
L 259.181818 136.042918 
L 260.409589 144 
L 261.396847 152.4 
L 262.062068 160.8 
L 262.392252 169.2 
L 262.403527 177.6 
L 262.09068 186 
L 261.688166 191.6 
L 261.128567 197.2 
L 260.413509 202.8 
L 259.181818 210.431183 
L 258.48329 214 
L 257.243616 219.6 
L 255.812346 225.2 
L 253.545455 232.748414 
L 252.284012 236.4 
L 250.158019 242 
L 247.748352 247.6 
L 245.007184 253.2 
L 241.875299 258.8 
L 238.278484 264.4 
L 236.287799 267.2 
L 233.818182 270.381284 
L 231 273.657976 
L 228.181818 276.609389 
L 225.363636 279.263552 
L 222.545455 281.645363 
L 219.393073 284 
L 216.909091 285.65177 
L 214.090909 287.315655 
L 211.272727 288.761037 
L 208.454545 290.007047 
L 205.636364 291.050386 
L 202.818182 291.911665 
L 200 292.588422 
L 197.181818 293.079863 
L 194.363636 293.398234 
L 191.545455 293.545121 
L 188.727273 293.522094 
L 185.909091 293.330702 
L 183.090909 292.972474 
L 180.072714 292.4 
L 177.454545 291.747714 
L 174.636364 290.879674 
L 171.236193 289.6 
L 169 288.631574 
L 165.372716 286.8 
L 163.363636 285.672143 
L 160.545455 283.92194 
L 156.710221 281.2 
L 153.204388 278.4 
L 150.049039 275.6 
L 147.176544 272.8 
L 144.535621 270 
L 142.08668 267.2 
L 139.798667 264.4 
L 137.646885 261.6 
L 133.74359 256 
L 131.939482 253.2 
L 128.633153 247.6 
L 125.64805 242 
L 122.946676 236.4 
L 120.497154 230.8 
L 118.272208 225.2 
L 115.343543 216.8 
L 112.84242 208.4 
L 111.403261 202.8 
L 109.623613 194.851451 
M 105.323237 154.548291 
L 105.350574 146.8 
L 105.701029 138.4 
L 106.120709 132.8 
L 107 124.673209 
L 107.429982 121.6 
L 108.340958 116 
L 109.818182 108.507109 
L 110.68517 104.8 
L 112.636364 97.472348 
L 113.830214 93.6 
L 115.733115 88 
L 118.272727 81.512773 
L 121.090909 75.275859 
L 123.909091 69.815656 
L 126.727273 64.977471 
L 130.014656 60 
L 132.363636 56.79524 
L 135.181818 53.323395 
L 138 50.195364 
L 140.818182 47.380924 
L 143.636364 44.853293 
L 145.67808 43.2 
L 145.67808 43.2 
" clip-path="url(#pb8bffd86ac)" style="fill: none; stroke: #21918c; stroke-width: 1.5"/>
    <path d="M 133.779975 320.4 
L 129.545455 316.073692 
L 125.891857 312 
L 121.266139 306.4 
L 118.272727 302.46888 
L 117.289795 301.11125 
M 97.111272 265.868633 
L 95.224436 261.6 
L 91.810359 253.2 
L 88.736372 244.8 
L 85.978498 236.4 
L 83.514963 228 
L 81.325947 219.6 
L 79.408645 211.2 
L 77.744878 202.8 
L 76.318446 194.4 
L 75.13925 186 
L 74.189947 177.6 
L 73.465034 169.2 
L 72.972546 160.8 
L 72.711148 152.4 
L 72.676321 144 
L 72.870686 135.6 
L 73.299923 127.2 
L 73.978107 118.8 
L 74.900003 110.4 
L 76.070421 102 
L 77.527438 93.6 
L 79.256446 85.2 
L 81.292873 76.8 
L 82.83701 71.2 
L 84.52009 65.6 
L 87.36937 57.2 
L 90.090909 50.116664 
L 93.055858 43.2 
M 262.53338 43.2 
L 265.527903 48.8 
L 268.318156 54.4 
L 270.920794 60 
L 274.492142 68.4 
L 274.947089 69.542201 
M 287.05323 108.339484 
L 288.73523 116 
L 290.350261 124.4 
L 291.708026 132.8 
L 293 142.540081 
L 293.73337 149.6 
L 294.397302 158 
L 294.836141 166.4 
L 295.047266 174.8 
L 295.028012 183.2 
L 294.775674 191.6 
L 294.287505 200 
L 293.560713 208.4 
L 292.581522 216.8 
L 291.336202 225.2 
L 289.827054 233.6 
L 288.021017 242 
L 286.648108 247.6 
L 284.321153 256 
L 281.637423 264.4 
L 278.557462 272.8 
L 276.090909 278.814855 
L 273.272727 285.039592 
L 270.454545 290.701637 
L 267.636364 295.883867 
L 264.725051 300.8 
L 261.071886 306.4 
L 259.114767 309.2 
L 254.82059 314.8 
L 252.483334 317.6 
L 249.994257 320.4 
L 249.994257 320.4 
" clip-path="url(#pb8bffd86ac)" style="fill: none; stroke: #fde725; stroke-width: 1.5"/>
   </g>
   <g id="patch_3">
    <path d="M 45 320.4 
L 45 43.2 
" style="fill: none; stroke: #000000; stroke-width: 0.8; stroke-linejoin: miter; stroke-linecap: square"/>
   </g>
   <g id="patch_4">
    <path d="M 324 320.4 
L 324 43.2 
" style="fill: none; stroke: #000000; stroke-width: 0.8; stroke-linejoin: miter; stroke-linecap: square"/>
   </g>
   <g id="patch_5">
    <path d="M 45 320.4 
L 324 320.4 
" style="fill: none; stroke: #000000; stroke-width: 0.8; stroke-linejoin: miter; stroke-linecap: square"/>
   </g>
   <g id="patch_6">
    <path d="M 45 43.2 
L 324 43.2 
" style="fill: none; stroke: #000000; stroke-width: 0.8; stroke-linejoin: miter; stroke-linecap: square"/>
   </g>
   <g id="text_12">
    <g clip-path="url(#pb8bffd86ac)">
     <!-- 0.5 -->
     <g style="fill: #450457" transform="translate(174.704618 147.61084) rotate(-331.796993) scale(0.15 -0.15)">
      <defs>
       <path id="DejaVuSans-2e" d="M 684 794 
L 1344 794 
L 1344 0 
L 684 0 
L 684 794 
z
" transform="scale(0.015625)"/>
      </defs>
      <use xlink:href="#DejaVuSans-30"/>
      <use xlink:href="#DejaVuSans-2e" x="63.623047"/>
      <use xlink:href="#DejaVuSans-35" x="95.410156"/>
     </g>
    </g>
   </g>
   <g id="text_13">
    <g clip-path="url(#pb8bffd86ac)">
     <!-- 1.0 -->
     <g style="fill: #46075a" transform="translate(170.680515 186.737516) rotate(-351.444068) scale(0.15 -0.15)">
      <use xlink:href="#DejaVuSans-31"/>
      <use xlink:href="#DejaVuSans-2e" x="63.623047"/>
      <use xlink:href="#DejaVuSans-30" x="95.410156"/>
     </g>
    </g>
   </g>
   <g id="text_14">
    <g clip-path="url(#pb8bffd86ac)">
     <!-- 2.0 -->
     <g style="fill: #470d60" transform="translate(159.222609 161.381907) rotate(-283.613023) scale(0.15 -0.15)">
      <use xlink:href="#DejaVuSans-32"/>
      <use xlink:href="#DejaVuSans-2e" x="63.623047"/>
      <use xlink:href="#DejaVuSans-30" x="95.410156"/>
     </g>
    </g>
   </g>
   <g id="text_15">
    <g clip-path="url(#pb8bffd86ac)">
     <!-- 4.0 -->
     <g style="fill: #48186a" transform="translate(214.977037 181.281518) rotate(-87.736386) scale(0.15 -0.15)">
      <use xlink:href="#DejaVuSans-34"/>
      <use xlink:href="#DejaVuSans-2e" x="63.623047"/>
      <use xlink:href="#DejaVuSans-30" x="95.410156"/>
     </g>
    </g>
   </g>
   <g id="text_16">
    <g clip-path="url(#pb8bffd86ac)">
     <!-- 8.0 -->
     <g style="fill: #472d7b" transform="translate(146.006432 194.182461) rotate(-297.817133) scale(0.15 -0.15)">
      <defs>
       <path id="DejaVuSans-38" d="M 2034 2216 
Q 1584 2216 1326 1975 
Q 1069 1734 1069 1313 
Q 1069 891 1326 650 
Q 1584 409 2034 409 
Q 2484 409 2743 651 
Q 3003 894 3003 1313 
Q 3003 1734 2745 1975 
Q 2488 2216 2034 2216 
z
M 1403 2484 
Q 997 2584 770 2862 
Q 544 3141 544 3541 
Q 544 4100 942 4425 
Q 1341 4750 2034 4750 
Q 2731 4750 3128 4425 
Q 3525 4100 3525 3541 
Q 3525 3141 3298 2862 
Q 3072 2584 2669 2484 
Q 3125 2378 3379 2068 
Q 3634 1759 3634 1313 
Q 3634 634 3220 271 
Q 2806 -91 2034 -91 
Q 1263 -91 848 271 
Q 434 634 434 1313 
Q 434 1759 690 2068 
Q 947 2378 1403 2484 
z
M 1172 3481 
Q 1172 3119 1398 2916 
Q 1625 2713 2034 2713 
Q 2441 2713 2670 2916 
Q 2900 3119 2900 3481 
Q 2900 3844 2670 4047 
Q 2441 4250 2034 4250 
Q 1625 4250 1398 4047 
Q 1172 3844 1172 3481 
z
" transform="scale(0.015625)"/>
      </defs>
      <use xlink:href="#DejaVuSans-38"/>
      <use xlink:href="#DejaVuSans-2e" x="63.623047"/>
      <use xlink:href="#DejaVuSans-30" x="95.410156"/>
     </g>
    </g>
   </g>
   <g id="text_17">
    <g clip-path="url(#pb8bffd86ac)">
     <!-- 16.0 -->
     <g style="fill: #3b528b" transform="translate(132.865431 133.180625) rotate(-73.058701) scale(0.15 -0.15)">
      <use xlink:href="#DejaVuSans-31"/>
      <use xlink:href="#DejaVuSans-36" x="63.623047"/>
      <use xlink:href="#DejaVuSans-2e" x="127.246094"/>
      <use xlink:href="#DejaVuSans-30" x="159.033203"/>
     </g>
    </g>
   </g>
   <g id="text_18">
    <g clip-path="url(#pb8bffd86ac)">
     <!-- 32.0 -->
     <g style="fill: #21918c" transform="translate(100.645719 158.635039) rotate(-276.098756) scale(0.15 -0.15)">
      <use xlink:href="#DejaVuSans-33"/>
      <use xlink:href="#DejaVuSans-32" x="63.623047"/>
      <use xlink:href="#DejaVuSans-2e" x="127.246094"/>
      <use xlink:href="#DejaVuSans-30" x="159.033203"/>
     </g>
    </g>
   </g>
   <g id="text_19">
    <g clip-path="url(#pb8bffd86ac)">
     <!-- 64.0 -->
     <g style="fill: #fde725" transform="translate(94.43297 271.555171) rotate(-299.747792) scale(0.15 -0.15)">
      <use xlink:href="#DejaVuSans-36"/>
      <use xlink:href="#DejaVuSans-34" x="63.623047"/>
      <use xlink:href="#DejaVuSans-2e" x="127.246094"/>
      <use xlink:href="#DejaVuSans-30" x="159.033203"/>
     </g>
    </g>
   </g>
   <g id="text_20">
    <g clip-path="url(#pb8bffd86ac)">
     <!-- 64.0 -->
     <g style="fill: #fde725" transform="translate(272.810481 73.99994) rotate(-287.296295) scale(0.15 -0.15)">
      <use xlink:href="#DejaVuSans-36"/>
      <use xlink:href="#DejaVuSans-34" x="63.623047"/>
      <use xlink:href="#DejaVuSans-2e" x="127.246094"/>
      <use xlink:href="#DejaVuSans-30" x="159.033203"/>
     </g>
    </g>
   </g>
  </g>
 </g>
 <defs>
  <clipPath id="pb8bffd86ac">
   <rect x="45" y="43.2" width="279" height="277.2"/>
  </clipPath>
 </defs>
</svg>
