<?xml version="1.0" encoding="utf-8" standalone="no"?>
<!DOCTYPE svg PUBLIC "-//W3C//DTD SVG 1.1//EN"
  "http://www.w3.org/Graphics/SVG/1.1/DTD/svg11.dtd">
<svg xmlns:xlink="http://www.w3.org/1999/xlink" width="504pt" height="504pt" viewBox="0 0 504 504" xmlns="http://www.w3.org/2000/svg" version="1.1">
 <metadata>
  <rdf:RDF xmlns:dc="http://purl.org/dc/elements/1.1/" xmlns:cc="http://creativecommons.org/ns#" xmlns:rdf="http://www.w3.org/1999/02/22-rdf-syntax-ns#">
   <cc:Work>
    <dc:type rdf:resource="http://purl.org/dc/dcmitype/StillImage"/>
    <dc:date>2024-11-15T23:56:43.808815</dc:date>
    <dc:format>image/svg+xml</dc:format>
    <dc:creator>
     <cc:Agent>
      <dc:title>Matplotlib v3.9.2, https://matplotlib.org/</dc:title>
     </cc:Agent>
    </dc:creator>
   </cc:Work>
  </rdf:RDF>
 </metadata>
 <defs>
  <style type="text/css">*{stroke-linejoin: round; stroke-linecap: butt}</style>
 </defs>
 <g id="figure_1">
  <g id="patch_1">
   <path d="M 0 504 
L 504 504 
L 504 0 
L 0 0 
L 0 504 
z
" style="fill: none"/>
  </g>
  <g id="axes_1">
   <g id="patch_2">
    <path d="M 63 448.56 
L 453.6 448.56 
L 453.6 60.48 
L 63 60.48 
L 63 448.56 
z
" style="fill: none"/>
   </g>
   <g id="patch_3">
    <path d="M 404.220435 237.504236 
L 390.754071 252.974842 
L 387.446012 247.44174 
L 167.176623 377.439805 
L 167.143377 377.384195 
L 387.412765 247.386131 
L 384.104705 241.85303 
z
" clip-path="url(#pe5d3d80712)" style="fill: #1f77b4; stroke: #000000; stroke-linejoin: miter"/>
   </g>
   <g id="matplotlib.axis_1">
    <g id="xtick_1">
     <g id="line2d_1">
      <defs>
       <path id="m23c8843259" d="M 0 0 
L 0 3.5 
" style="stroke: #000000; stroke-width: 0.8"/>
      </defs>
      <g>
       <use xlink:href="#m23c8843259" x="167.16" y="448.56" style="stroke: #000000; stroke-width: 0.8"/>
      </g>
     </g>
     <g id="text_1">
      <!-- 0 -->
      <g transform="translate(160.16125 472.276563) scale(0.22 -0.22)">
       <defs>
        <path id="DejaVuSans-30" d="M 2034 4250 
Q 1547 4250 1301 3770 
Q 1056 3291 1056 2328 
Q 1056 1369 1301 889 
Q 1547 409 2034 409 
Q 2525 409 2770 889 
Q 3016 1369 3016 2328 
Q 3016 3291 2770 3770 
Q 2525 4250 2034 4250 
z
M 2034 4750 
Q 2819 4750 3233 4129 
Q 3647 3509 3647 2328 
Q 3647 1150 3233 529 
Q 2819 -91 2034 -91 
Q 1250 -91 836 529 
Q 422 1150 422 2328 
Q 422 3509 836 4129 
Q 1250 4750 2034 4750 
z
" transform="scale(0.015625)"/>
       </defs>
       <use xlink:href="#DejaVuSans-30"/>
      </g>
     </g>
    </g>
    <g id="xtick_2">
     <g id="line2d_2">
      <g>
       <use xlink:href="#m23c8843259" x="297.36" y="448.56" style="stroke: #000000; stroke-width: 0.8"/>
      </g>
     </g>
     <g id="text_2">
      <!-- 2 -->
      <g transform="translate(290.36125 472.276563) scale(0.22 -0.22)">
       <defs>
        <path id="DejaVuSans-32" d="M 1228 531 
L 3431 531 
L 3431 0 
L 469 0 
L 469 531 
Q 828 903 1448 1529 
Q 2069 2156 2228 2338 
Q 2531 2678 2651 2914 
Q 2772 3150 2772 3378 
Q 2772 3750 2511 3984 
Q 2250 4219 1831 4219 
Q 1534 4219 1204 4116 
Q 875 4013 500 3803 
L 500 4441 
Q 881 4594 1212 4672 
Q 1544 4750 1819 4750 
Q 2544 4750 2975 4387 
Q 3406 4025 3406 3419 
Q 3406 3131 3298 2873 
Q 3191 2616 2906 2266 
Q 2828 2175 2409 1742 
Q 1991 1309 1228 531 
z
" transform="scale(0.015625)"/>
       </defs>
       <use xlink:href="#DejaVuSans-32"/>
      </g>
     </g>
    </g>
    <g id="xtick_3">
     <g id="line2d_3">
      <g>
       <use xlink:href="#m23c8843259" x="427.56" y="448.56" style="stroke: #000000; stroke-width: 0.8"/>
      </g>
     </g>
     <g id="text_3">
      <!-- 4 -->
      <g transform="translate(420.56125 472.276563) scale(0.22 -0.22)">
       <defs>
        <path id="DejaVuSans-34" d="M 2419 4116 
L 825 1625 
L 2419 1625 
L 2419 4116 
z
M 2253 4666 
L 3047 4666 
L 3047 1625 
L 3713 1625 
L 3713 1100 
L 3047 1100 
L 3047 0 
L 2419 0 
L 2419 1100 
L 313 1100 
L 313 1709 
L 2253 4666 
z
" transform="scale(0.015625)"/>
       </defs>
       <use xlink:href="#DejaVuSans-34"/>
      </g>
     </g>
    </g>
    <g id="text_4">
     <!-- $m$ -->
     <g transform="translate(243.6 503.647188) scale(0.3 -0.3)">
      <defs>
       <path id="DejaVuSans-Oblique-6d" d="M 5747 2113 
L 5338 0 
L 4763 0 
L 5166 2094 
Q 5191 2228 5203 2325 
Q 5216 2422 5216 2491 
Q 5216 2772 5059 2928 
Q 4903 3084 4622 3084 
Q 4203 3084 3875 2770 
Q 3547 2456 3450 1953 
L 3066 0 
L 2491 0 
L 2900 2094 
Q 2925 2209 2937 2307 
Q 2950 2406 2950 2484 
Q 2950 2769 2794 2926 
Q 2638 3084 2363 3084 
Q 1938 3084 1609 2770 
Q 1281 2456 1184 1953 
L 800 0 
L 225 0 
L 909 3500 
L 1484 3500 
L 1375 2956 
Q 1609 3263 1923 3423 
Q 2238 3584 2597 3584 
Q 2978 3584 3223 3384 
Q 3469 3184 3519 2828 
Q 3781 3197 4126 3390 
Q 4472 3584 4856 3584 
Q 5306 3584 5551 3325 
Q 5797 3066 5797 2591 
Q 5797 2488 5784 2364 
Q 5772 2241 5747 2113 
z
" transform="scale(0.015625)"/>
      </defs>
      <use xlink:href="#DejaVuSans-Oblique-6d"/>
     </g>
    </g>
   </g>
   <g id="matplotlib.axis_2">
    <g id="ytick_1">
     <g id="line2d_4">
      <defs>
       <path id="m7132bab825" d="M 0 0 
L -3.5 0 
" style="stroke: #000000; stroke-width: 0.8"/>
      </defs>
      <g>
       <use xlink:href="#m7132bab825" x="63" y="442.092" style="stroke: #000000; stroke-width: 0.8"/>
      </g>
     </g>
     <g id="text_5">
      <!-- −6 -->
      <g transform="translate(23.567188 450.450281) scale(0.22 -0.22)">
       <defs>
        <path id="DejaVuSans-2212" d="M 678 2272 
L 4684 2272 
L 4684 1741 
L 678 1741 
L 678 2272 
z
" transform="scale(0.015625)"/>
        <path id="DejaVuSans-36" d="M 2113 2584 
Q 1688 2584 1439 2293 
Q 1191 2003 1191 1497 
Q 1191 994 1439 701 
Q 1688 409 2113 409 
Q 2538 409 2786 701 
Q 3034 994 3034 1497 
Q 3034 2003 2786 2293 
Q 2538 2584 2113 2584 
z
M 3366 4563 
L 3366 3988 
Q 3128 4100 2886 4159 
Q 2644 4219 2406 4219 
Q 1781 4219 1451 3797 
Q 1122 3375 1075 2522 
Q 1259 2794 1537 2939 
Q 1816 3084 2150 3084 
Q 2853 3084 3261 2657 
Q 3669 2231 3669 1497 
Q 3669 778 3244 343 
Q 2819 -91 2113 -91 
Q 1303 -91 875 529 
Q 447 1150 447 2328 
Q 447 3434 972 4092 
Q 1497 4750 2381 4750 
Q 2619 4750 2861 4703 
Q 3103 4656 3366 4563 
z
" transform="scale(0.015625)"/>
       </defs>
       <use xlink:href="#DejaVuSans-2212"/>
       <use xlink:href="#DejaVuSans-36" x="83.789062"/>
      </g>
     </g>
    </g>
    <g id="ytick_2">
     <g id="line2d_5">
      <g>
       <use xlink:href="#m7132bab825" x="63" y="377.412" style="stroke: #000000; stroke-width: 0.8"/>
      </g>
     </g>
     <g id="text_6">
      <!-- −5 -->
      <g transform="translate(23.567188 385.770281) scale(0.22 -0.22)">
       <defs>
        <path id="DejaVuSans-35" d="M 691 4666 
L 3169 4666 
L 3169 4134 
L 1269 4134 
L 1269 2991 
Q 1406 3038 1543 3061 
Q 1681 3084 1819 3084 
Q 2600 3084 3056 2656 
Q 3513 2228 3513 1497 
Q 3513 744 3044 326 
Q 2575 -91 1722 -91 
Q 1428 -91 1123 -41 
Q 819 9 494 109 
L 494 744 
Q 775 591 1075 516 
Q 1375 441 1709 441 
Q 2250 441 2565 725 
Q 2881 1009 2881 1497 
Q 2881 1984 2565 2268 
Q 2250 2553 1709 2553 
Q 1456 2553 1204 2497 
Q 953 2441 691 2322 
L 691 4666 
z
" transform="scale(0.015625)"/>
       </defs>
       <use xlink:href="#DejaVuSans-2212"/>
       <use xlink:href="#DejaVuSans-35" x="83.789062"/>
      </g>
     </g>
    </g>
    <g id="ytick_3">
     <g id="line2d_6">
      <g>
       <use xlink:href="#m7132bab825" x="63" y="312.732" style="stroke: #000000; stroke-width: 0.8"/>
      </g>
     </g>
     <g id="text_7">
      <!-- −4 -->
      <g transform="translate(23.567188 321.090281) scale(0.22 -0.22)">
       <use xlink:href="#DejaVuSans-2212"/>
       <use xlink:href="#DejaVuSans-34" x="83.789062"/>
      </g>
     </g>
    </g>
    <g id="ytick_4">
     <g id="line2d_7">
      <g>
       <use xlink:href="#m7132bab825" x="63" y="248.052" style="stroke: #000000; stroke-width: 0.8"/>
      </g>
     </g>
     <g id="text_8">
      <!-- −3 -->
      <g transform="translate(23.567188 256.410281) scale(0.22 -0.22)">
       <defs>
        <path id="DejaVuSans-33" d="M 2597 2516 
Q 3050 2419 3304 2112 
Q 3559 1806 3559 1356 
Q 3559 666 3084 287 
Q 2609 -91 1734 -91 
Q 1441 -91 1130 -33 
Q 819 25 488 141 
L 488 750 
Q 750 597 1062 519 
Q 1375 441 1716 441 
Q 2309 441 2620 675 
Q 2931 909 2931 1356 
Q 2931 1769 2642 2001 
Q 2353 2234 1838 2234 
L 1294 2234 
L 1294 2753 
L 1863 2753 
Q 2328 2753 2575 2939 
Q 2822 3125 2822 3475 
Q 2822 3834 2567 4026 
Q 2313 4219 1838 4219 
Q 1578 4219 1281 4162 
Q 984 4106 628 3988 
L 628 4550 
Q 988 4650 1302 4700 
Q 1616 4750 1894 4750 
Q 2613 4750 3031 4423 
Q 3450 4097 3450 3541 
Q 3450 3153 3228 2886 
Q 3006 2619 2597 2516 
z
" transform="scale(0.015625)"/>
       </defs>
       <use xlink:href="#DejaVuSans-2212"/>
       <use xlink:href="#DejaVuSans-33" x="83.789062"/>
      </g>
     </g>
    </g>
    <g id="ytick_5">
     <g id="line2d_8">
      <g>
       <use xlink:href="#m7132bab825" x="63" y="183.372" style="stroke: #000000; stroke-width: 0.8"/>
      </g>
     </g>
     <g id="text_9">
      <!-- −2 -->
      <g transform="translate(23.567188 191.730281) scale(0.22 -0.22)">
       <use xlink:href="#DejaVuSans-2212"/>
       <use xlink:href="#DejaVuSans-32" x="83.789062"/>
      </g>
     </g>
    </g>
    <g id="ytick_6">
     <g id="line2d_9">
      <g>
       <use xlink:href="#m7132bab825" x="63" y="118.692" style="stroke: #000000; stroke-width: 0.8"/>
      </g>
     </g>
     <g id="text_10">
      <!-- −1 -->
      <g transform="translate(23.567188 127.050281) scale(0.22 -0.22)">
       <defs>
        <path id="DejaVuSans-31" d="M 794 531 
L 1825 531 
L 1825 4091 
L 703 3866 
L 703 4441 
L 1819 4666 
L 2450 4666 
L 2450 531 
L 3481 531 
L 3481 0 
L 794 0 
L 794 531 
z
" transform="scale(0.015625)"/>
       </defs>
       <use xlink:href="#DejaVuSans-2212"/>
       <use xlink:href="#DejaVuSans-31" x="83.789062"/>
      </g>
     </g>
    </g>
    <g id="text_11">
     <!-- $c$ -->
     <g transform="translate(13.328125 262.77) rotate(-90) scale(0.3 -0.3)">
      <defs>
       <path id="DejaVuSans-Oblique-63" d="M 3431 3366 
L 3316 2797 
Q 3109 2947 2876 3022 
Q 2644 3097 2394 3097 
Q 2119 3097 1870 3000 
Q 1622 2903 1453 2725 
Q 1184 2453 1037 2087 
Q 891 1722 891 1331 
Q 891 859 1127 628 
Q 1363 397 1844 397 
Q 2081 397 2348 469 
Q 2616 541 2906 684 
L 2797 116 
Q 2547 13 2283 -39 
Q 2019 -91 1741 -91 
Q 1044 -91 669 257 
Q 294 606 294 1253 
Q 294 1797 489 2255 
Q 684 2713 1069 3078 
Q 1331 3328 1684 3456 
Q 2038 3584 2456 3584 
Q 2700 3584 2940 3529 
Q 3181 3475 3431 3366 
z
" transform="scale(0.015625)"/>
      </defs>
      <use xlink:href="#DejaVuSans-Oblique-63"/>
     </g>
    </g>
   </g>
   <g id="QuadContourSet_1">
    <path clip-path="url(#pe5d3d80712)" style="fill: none; stroke: #440154; stroke-width: 1.5"/>
    <path d="M 269.056485 222.91893 
L 269.432348 225.12 
L 269.685571 229.04 
L 269.502652 232.96 
L 268.86232 236.88 
L 268.163636 239.339524 
L 267.536744 240.8 
L 265.096621 244.72 
L 264.218182 245.788395 
L 260.272727 248.090046 
L 256.327273 248.003916 
L 252.381818 245.73213 
L 251.467941 244.72 
L 248.534074 240.8 
L 248.436364 240.632838 
L 246.962496 236.88 
L 245.862668 232.96 
L 245.225192 229.04 
L 245.075609 225.12 
L 245.441374 221.2 
L 246.352044 217.28 
L 247.839479 213.36 
L 248.436364 212.2293 
L 248.815575 211.802213 
" clip-path="url(#pe5d3d80712)" style="fill: none; stroke: #450457; stroke-width: 1.5"/>
    <path d="M 244.798578 248.36482 
L 244.490909 247.872418 
L 242.989352 244.72 
L 241.43459 240.8 
L 240.545455 237.967517 
L 240.270311 236.88 
L 239.554875 232.96 
L 239.116956 229.04 
L 238.965419 225.12 
L 239.109508 221.2 
L 239.558874 217.28 
L 240.323589 213.36 
L 240.545455 212.55548 
L 241.659553 209.44 
L 243.499585 205.52 
L 244.490909 203.817733 
L 246.338598 201.6 
L 248.436364 199.503557 
L 251.64123 197.68 
L 252.381818 197.319028 
L 256.327273 196.79636 
L 260.272727 197.628637 
L 260.366808 197.68 
L 264.218182 200.026697 
L 265.842813 201.6 
L 268.163636 204.142627 
L 269.080774 205.52 
L 271.337088 209.44 
L 272.109091 211.036821 
L 272.990388 213.36 
L 274.183141 217.28 
L 275.078346 221.2 
L 275.665419 225.12 
L 275.933264 229.04 
L 275.870247 232.96 
L 275.464162 236.88 
L 274.702196 240.8 
L 273.570887 244.72 
L 272.109091 248.504512 
L 272.038151 248.64 
L 269.67453 252.24208 
" clip-path="url(#pe5d3d80712)" style="fill: none; stroke: #46075a; stroke-width: 1.5"/>
    <path d="M 230.612951 225.410693 
L 230.600411 225.12 
L 230.638316 221.2 
L 230.887951 217.28 
L 231.354181 213.36 
L 232.042023 209.44 
L 232.654545 206.808082 
L 233.011681 205.52 
L 234.369765 201.6 
L 236.013528 197.68 
L 236.6 196.485663 
L 238.262505 193.76 
L 240.545455 190.517723 
L 241.17512 189.84 
L 244.490909 186.692159 
L 245.686153 185.92 
L 248.436364 184.330773 
L 252.381818 183.106802 
L 256.327273 182.907084 
L 260.272727 183.692813 
L 264.218182 185.427121 
L 264.945227 185.92 
L 268.163636 188.279534 
L 269.747683 189.84 
L 272.109091 192.372525 
L 273.139305 193.76 
L 275.788979 197.68 
L 276.054545 198.117868 
L 277.805838 201.6 
L 279.556966 205.52 
L 280 206.665021 
L 280.915877 209.44 
L 282.008274 213.36 
L 282.89748 217.28 
L 283.578617 221.2 
L 283.945455 224.277779 
L 284.032705 225.12 
L 284.247682 229.04 
L 284.269745 232.96 
L 284.09478 236.88 
L 283.945455 238.442582 
L 283.681091 240.8 
L 283.002058 244.72 
L 282.076009 248.64 
L 280.896604 252.56 
L 280 255.009817 
L 279.345475 256.48 
L 277.283108 260.4 
L 276.054545 262.415957 
L 274.569368 264.32 
L 272.109091 267.08783 
L 270.686808 268.24 
L 268.163636 270.060954 
L 264.218182 271.806229 
L 262.158141 272.16 
L 260.272727 272.452313 
L 256.744394 272.16 
L 256.327273 272.122721 
L 252.381818 270.775666 
L 248.436364 268.476099 
L 248.150103 268.24 
L 244.490909 264.971087 
L 243.925021 264.32 
L 240.804319 260.4 
L 240.545455 260.041079 
L 238.45097 256.48 
L 237.839905 255.323824 
" clip-path="url(#pe5d3d80712)" style="fill: none; stroke: #470d60; stroke-width: 1.5"/>
    <path d="M 260.272727 291.803364 
L 259.840172 291.76 
L 256.327273 291.388819 
L 252.381818 290.291109 
L 248.436364 288.530913 
L 247.310135 287.84 
L 244.490909 286.013615 
L 241.94112 283.92 
L 240.545455 282.706041 
L 237.976462 280 
L 236.6 278.458664 
L 234.790988 276.08 
L 232.654545 273.081699 
L 232.082651 272.16 
L 229.821747 268.24 
L 228.709091 266.155185 
L 227.842422 264.32 
L 226.145538 260.4 
L 224.763636 256.893287 
L 224.617679 256.48 
L 223.378958 252.56 
L 222.281441 248.64 
L 221.327508 244.72 
L 220.818182 242.243624 
L 220.549616 240.8 
L 219.957002 236.88 
L 219.500774 232.96 
L 219.183041 229.04 
L 219.005958 225.12 
L 218.971722 221.2 
L 219.082578 217.28 
L 219.340818 213.36 
L 219.748781 209.44 
L 220.308859 205.52 
L 220.818182 202.721915 
L 221.047819 201.6 
L 222.023556 197.68 
L 223.17929 193.76 
L 224.51831 189.84 
L 224.763636 189.206431 
L 226.220896 185.92 
L 228.176666 182 
L 228.709091 181.03748 
L 230.625103 178.08 
L 232.654545 175.239368 
L 233.584961 174.16 
L 236.6 170.960451 
L 237.455637 170.24 
L 240.545455 167.842721 
L 243.198782 166.32 
L 244.490909 165.632467 
L 248.436364 164.255146 
L 252.381818 163.593144 
L 256.327273 163.627534 
L 260.272727 164.34005 
L 264.218182 165.713061 
L 265.398572 166.32 
L 268.163636 167.820281 
L 271.555195 170.24 
L 272.109091 170.658281 
L 275.850164 174.16 
L 276.054545 174.363183 
L 279.187861 178.08 
L 280 179.107155 
L 281.968515 182 
L 283.945455 185.111187 
L 284.396534 185.92 
L 286.418171 189.84 
L 287.890909 192.939369 
L 288.238105 193.76 
L 289.745505 197.68 
L 291.106875 201.6 
L 291.836364 203.963515 
L 292.268802 205.52 
L 293.217774 209.44 
L 294.027892 213.36 
L 294.696908 217.28 
L 295.222525 221.2 
L 295.239997 221.380292 
M 294.022693 252.282467 
L 293.972386 252.56 
L 293.095344 256.48 
L 292.048942 260.4 
L 291.836364 261.087026 
L 290.700474 264.32 
L 289.124657 268.24 
L 287.890909 270.962668 
L 287.262666 272.16 
L 284.972857 276.08 
L 283.945455 277.673365 
L 282.161319 280 
L 280 282.571664 
L 278.602289 283.92 
L 276.054545 286.179829 
L 273.612906 287.84 
L 272.109091 288.786303 
L 268.163636 290.524478 
L 264.218182 291.524424 
L 260.923561 291.76 
L 260.272727 291.803364 
" clip-path="url(#pe5d3d80712)" style="fill: none; stroke: #48186a; stroke-width: 1.5"/>
    <path d="M 211.178318 269.726123 
L 209.317396 264.32 
L 208.167116 260.4 
L 206.212444 252.56 
L 205.036364 246.753609 
L 204.107527 240.8 
L 203.241797 232.96 
L 202.771524 225.12 
L 202.70549 217.28 
L 203.05274 209.44 
L 203.822592 201.6 
L 205.024644 193.76 
L 205.852223 189.84 
L 206.802184 185.92 
L 208.981818 178.375629 
L 209.080606 178.08 
L 210.523437 174.16 
L 212.927273 168.370801 
L 213.922471 166.32 
L 216.872727 160.820715 
L 218.351288 158.48 
L 221.03313 154.56 
L 224.763636 150.047417 
L 228.709091 146.166745 
L 233.040361 142.8 
L 236.6 140.622725 
L 240.545455 138.757472 
L 244.490909 137.47868 
L 248.436364 136.699041 
L 252.381818 136.409291 
L 256.327273 136.600393 
L 260.272727 137.263534 
L 264.218182 138.390111 
L 268.163636 140.020183 
L 273.119162 142.8 
L 276.054545 144.800073 
L 280 148.01945 
L 283.945455 151.867276 
L 287.890909 156.427603 
L 291.836364 161.800173 
L 294.664702 166.32 
L 296.875308 170.24 
L 299.727273 175.931345 
L 302.304587 182 
L 303.814141 185.92 
L 306.320997 193.76 
L 307.618182 198.449678 
L 309.190746 205.52 
L 310.552539 213.36 
L 311.513503 221.2 
L 311.821372 225.12 
L 312.13944 232.96 
L 312.062999 240.8 
L 311.583482 248.64 
L 311.160859 252.56 
L 310.62427 256.48 
L 309.97392 260.4 
L 309.208455 264.32 
L 307.618182 271.020307 
L 307.301652 272.16 
L 306.085945 276.08 
L 303.672727 282.822642 
L 303.217062 283.92 
L 301.445061 287.84 
L 299.499057 291.76 
L 295.781818 297.927218 
L 294.593954 299.6 
L 291.585561 303.52 
L 287.890909 307.507273 
L 283.366924 311.36 
L 280 313.662236 
L 276.054545 315.782158 
L 272.109091 317.308608 
L 268.163636 318.324852 
L 264.218182 318.840508 
L 260.272727 318.864954 
L 256.327273 318.407334 
L 252.381818 317.476568 
L 248.436364 316.081358 
L 244.490909 314.183153 
L 239.965781 311.36 
L 236.6 308.810836 
L 232.654545 305.250963 
L 228.709091 301.026485 
L 225.529505 297.026487 
L 225.529505 297.026487 
" clip-path="url(#pe5d3d80712)" style="fill: none; stroke: #472d7b; stroke-width: 1.5"/>
    <path d="M 332.844626 268.873184 
L 331.641585 276.08 
L 330.848096 280 
L 328.966055 287.84 
L 327.345455 293.627669 
L 325.380168 299.6 
L 323.4 304.98601 
L 320.676302 311.36 
L 318.815531 315.28 
L 315.509091 321.447075 
L 312.037162 327.04 
L 311.563636 327.756812 
L 307.618182 333.140487 
L 303.672727 337.783139 
L 299.727273 341.777664 
L 295.781818 345.202057 
L 291.836364 348.122277 
L 287.890909 350.594489 
L 283.945455 352.608132 
L 279.282771 354.48 
L 276.054545 355.487014 
L 272.109091 356.366733 
L 268.163636 356.899054 
L 264.218182 357.088518 
L 260.272727 356.939586 
L 256.327273 356.456644 
L 252.381818 355.643999 
L 248.366668 354.48 
L 244.490909 353.00212 
L 239.429597 350.56 
L 236.6 348.96867 
L 232.654545 346.412255 
L 227.841452 342.72 
L 223.429282 338.8 
L 219.540197 334.88 
L 216.051114 330.96 
L 212.874756 327.04 
L 208.981818 321.643105 
L 204.901515 315.28 
L 200.534935 307.44 
L 196.738063 299.6 
L 193.2 291.154407 
L 190.593598 283.92 
L 189.254545 279.897024 
L 187.021778 272.16 
L 185.054739 264.32 
L 183.449374 256.48 
L 182.121512 248.64 
L 181.090031 240.8 
L 180.368927 232.96 
L 179.924573 225.12 
L 179.761238 217.28 
L 179.883281 209.44 
L 180.295148 201.6 
L 181.00138 193.76 
L 182.041869 185.92 
L 183.423206 178.08 
L 185.309091 169.524721 
L 187.280804 162.4 
L 189.254545 156.196144 
L 191.319611 150.64 
L 193.2 146.027111 
L 196.587063 138.88 
L 198.709831 134.96 
L 201.090909 130.8804 
L 205.036364 125.029946 
L 208.981818 119.985401 
L 212.927273 115.642745 
L 216.872727 111.915118 
L 220.818182 108.729426 
L 224.763636 106.023716 
L 229.021116 103.6 
L 232.654545 101.917677 
L 236.6 100.458032 
L 240.545455 99.371024 
L 244.490909 98.654743 
L 248.436364 98.280671 
L 252.381818 98.244384 
L 256.327273 98.541534 
L 260.272727 99.167847 
L 264.218182 100.132677 
L 268.163636 101.443824 
L 273.150755 103.6 
L 276.054545 105.085525 
L 280.127304 107.52 
L 283.945455 110.187253 
L 287.890909 113.332338 
L 291.836364 116.902981 
L 295.781818 120.937578 
L 299.727273 125.479282 
L 304.002591 131.04 
L 307.618182 136.338277 
L 311.563636 142.825345 
L 315.701927 150.64 
L 319.454545 158.81088 
L 322.431849 166.32 
L 323.850837 170.24 
L 326.368978 178.08 
L 327.511355 182 
L 329.485409 189.84 
L 331.290909 198.271094 
L 332.522477 205.52 
L 333.584696 213.36 
L 334.367509 221.2 
L 334.826596 228.307994 
L 334.826596 228.307994 
" clip-path="url(#pe5d3d80712)" style="fill: none; stroke: #3b528b; stroke-width: 1.5"/>
    <path d="M 293.873772 60.48 
L 295.781818 61.874242 
L 299.727273 65.009853 
L 303.672727 68.444162 
L 307.660575 72.24 
L 311.563636 76.285566 
L 315.509091 80.735201 
L 319.454545 85.568986 
L 324.126342 91.84 
L 327.345455 96.51754 
L 331.807112 103.6 
L 336.267806 111.44 
L 340.30039 119.28 
L 343.953954 127.12 
L 347.27036 134.96 
L 351.018182 144.914953 
L 352.953773 150.64 
L 355.402664 158.48 
L 357.577691 166.32 
L 359.529279 174.16 
L 361.236711 182 
L 362.854545 190.460085 
L 364.014496 197.68 
L 365.083429 205.52 
L 365.955586 213.36 
L 366.628785 221.2 
L 367.090145 229.04 
L 367.349153 236.88 
L 367.409731 244.72 
L 367.269726 252.56 
L 366.8 262.407504 
L 366.363433 268.24 
L 365.579994 276.08 
L 364.578913 283.92 
L 363.357691 291.76 
L 361.876606 299.6 
L 360.141063 307.44 
L 358.137285 315.28 
L 355.831529 323.12 
L 354.566943 327.04 
L 351.760849 334.88 
L 350.221227 338.8 
L 346.847692 346.64 
L 343.010057 354.48 
L 338.625419 362.32 
L 335.236364 367.738497 
L 330.802918 374.08 
L 327.345455 378.533798 
L 323.4 383.121166 
L 319.454545 387.253144 
L 315.509091 390.968973 
L 311.563636 394.303509 
L 307.150302 397.6 
L 303.672727 399.912478 
L 299.727273 402.241917 
L 295.781818 404.265452 
L 291.836364 406.009865 
L 287.890909 407.47054 
L 283.945455 408.67633 
L 280 409.623791 
L 276.054545 410.311808 
L 272.109091 410.757527 
L 268.163636 410.96317 
L 264.218182 410.930932 
L 260.272727 410.662983 
L 256.327273 410.161463 
L 252.1018 409.36 
L 248.436364 408.446799 
L 244.490909 407.231544 
L 239.73067 405.44 
L 236.6 404.084204 
L 231.521802 401.52 
L 228.709091 399.941 
L 224.763636 397.490716 
L 219.39431 393.68 
L 216.872727 391.741225 
L 212.927273 388.439751 
L 208.981818 384.831199 
L 205.036364 380.896166 
L 201.090909 376.613585 
L 197.145455 371.960532 
L 192.705639 366.24 
L 189.254545 361.416563 
L 184.715274 354.48 
L 180.086414 346.64 
L 177.418182 341.755496 
L 173.472727 333.87285 
L 169.527273 325.110786 
L 167.11255 319.2 
L 164.161426 311.36 
L 161.48096 303.52 
L 159.096505 295.68 
L 156.942051 287.84 
L 155.036367 280 
L 153.344197 272.16 
L 151.980864 264.812582 
M 147.672856 224.482329 
L 147.462146 217.28 
L 147.430297 209.44 
L 147.602641 201.6 
L 147.98144 193.76 
L 148.568992 185.92 
L 149.367626 178.08 
L 150.401975 170.24 
L 151.677342 162.4 
L 153.179815 154.56 
L 154.959238 146.72 
L 157.003949 138.88 
L 158.136299 134.96 
L 160.653298 127.12 
L 162.026361 123.2 
L 165.581818 114.117882 
L 168.521044 107.52 
L 170.413441 103.6 
L 173.472727 97.741918 
L 177.418182 90.96846 
L 182.020519 84 
L 185.309091 79.513336 
L 189.254545 74.652753 
L 193.2 70.27351 
L 197.145455 66.333293 
L 201.090909 62.79461 
L 203.949312 60.48 
L 203.949312 60.48 
" clip-path="url(#pe5d3d80712)" style="fill: none; stroke: #21918c; stroke-width: 1.5"/>
    <path d="M 187.291965 448.56 
L 183.40466 444.64 
L 179.732232 440.72 
L 176.248599 436.8 
L 172.931739 432.88 
L 169.527273 428.650649 
L 163.890228 421.12 
L 161.116711 417.2 
L 155.9252 409.36 
L 153.461534 405.44 
L 148.837427 397.6 
L 144.536624 389.76 
L 140.53167 381.92 
L 136.798137 374.08 
L 133.314211 366.24 
L 130.060356 358.4 
L 126.127273 348.082868 
L 122.890618 338.8 
L 120.369898 330.96 
L 118.016621 323.12 
L 114.834752 311.36 
L 112.926832 303.52 
L 110.345455 291.751586 
L 108.233496 280.509646 
M 103.105437 240.16936 
L 102.353413 229.04 
L 101.882528 217.28 
L 101.727632 205.52 
L 101.892376 193.76 
L 102.380467 182 
L 102.898719 174.16 
L 103.569349 166.32 
L 104.391622 158.48 
L 105.366754 150.64 
L 106.498589 142.8 
L 107.818259 134.96 
L 109.299002 127.12 
L 110.959024 119.28 
L 112.817218 111.44 
L 114.86177 103.6 
L 117.126301 95.76 
L 119.609823 87.92 
L 122.317118 80.08 
L 126.127273 70.16333 
L 128.553855 64.4 
L 130.278202 60.48 
M 367.546731 60.48 
L 371.739064 68.32 
L 375.645418 76.16 
L 379.289112 84 
L 382.690997 91.84 
L 386.527273 101.421925 
L 387.848731 104.951559 
M 399.935652 143.773812 
L 402.544098 154.56 
L 405.019957 166.32 
L 406.490366 174.16 
L 408.391237 185.92 
L 409.980148 197.68 
L 410.84748 205.52 
L 411.881222 217.28 
L 412.601046 229.04 
L 413.003299 240.8 
L 413.084271 252.56 
L 412.840195 264.32 
L 412.267244 276.08 
L 411.700651 283.92 
L 410.984998 291.76 
L 410.116937 299.6 
L 409.072259 307.44 
L 407.870683 315.28 
L 406.254545 324.480047 
L 404.956498 330.96 
L 403.229423 338.8 
L 401.307351 346.64 
L 398.363636 357.34011 
L 396.844108 362.32 
L 394.292392 370.16 
L 390.472727 380.658022 
L 388.403068 385.84 
L 385.050086 393.68 
L 381.384979 401.52 
L 377.370773 409.36 
L 372.964419 417.2 
L 370.615071 421.12 
L 365.50064 428.96 
L 362.760674 432.88 
L 358.909091 438.015728 
L 353.476668 444.64 
L 349.99196 448.56 
L 349.99196 448.56 
" clip-path="url(#pe5d3d80712)" style="fill: none; stroke: #fde725; stroke-width: 1.5"/>
   </g>
   <g id="line2d_10">
    <defs>
     <path id="m152ffe6397" d="M 0 -10 
L -2.24514 -3.09017 
L -9.510565 -3.09017 
L -3.632713 1.18034 
L -5.877853 8.09017 
L -0 3.81966 
L 5.877853 8.09017 
L 3.632713 1.18034 
L 9.510565 -3.09017 
L 2.24514 -3.09017 
z
" style="stroke: #008000; stroke-linejoin: bevel"/>
    </defs>
    <g clip-path="url(#pe5d3d80712)">
     <use xlink:href="#m152ffe6397" x="167.16" y="377.412" style="fill: #008000; stroke: #008000; stroke-linejoin: bevel"/>
    </g>
   </g>
   <g id="patch_4">
    <path d="M 63 448.56 
L 63 60.48 
" style="fill: none; stroke: #000000; stroke-width: 0.8; stroke-linejoin: miter; stroke-linecap: square"/>
   </g>
   <g id="patch_5">
    <path d="M 453.6 448.56 
L 453.6 60.48 
" style="fill: none; stroke: #000000; stroke-width: 0.8; stroke-linejoin: miter; stroke-linecap: square"/>
   </g>
   <g id="patch_6">
    <path d="M 63 448.56 
L 453.6 448.56 
" style="fill: none; stroke: #000000; stroke-width: 0.8; stroke-linejoin: miter; stroke-linecap: square"/>
   </g>
   <g id="patch_7">
    <path d="M 63 60.48 
L 453.6 60.48 
" style="fill: none; stroke: #000000; stroke-width: 0.8; stroke-linejoin: miter; stroke-linecap: square"/>
   </g>
   <g id="text_12">
    <g clip-path="url(#pe5d3d80712)">
     <!-- 0.5 -->
     <g style="fill: #450457" transform="translate(249.688523 206.829777) rotate(-328.930175) scale(0.15 -0.15)">
      <defs>
       <path id="DejaVuSans-2e" d="M 684 794 
L 1344 794 
L 1344 0 
L 684 0 
L 684 794 
z
" transform="scale(0.015625)"/>
      </defs>
      <use xlink:href="#DejaVuSans-30"/>
      <use xlink:href="#DejaVuSans-2e" x="63.623047"/>
      <use xlink:href="#DejaVuSans-35" x="95.410156"/>
     </g>
    </g>
   </g>
   <g id="text_13">
    <g clip-path="url(#pe5d3d80712)">
     <!-- 1.0 -->
     <g style="fill: #46075a" transform="translate(243.860562 260.180221) rotate(-349.947575) scale(0.15 -0.15)">
      <use xlink:href="#DejaVuSans-31"/>
      <use xlink:href="#DejaVuSans-2e" x="63.623047"/>
      <use xlink:href="#DejaVuSans-30" x="95.410156"/>
     </g>
    </g>
   </g>
   <g id="text_14">
    <g clip-path="url(#pe5d3d80712)">
     <!-- 2.0 -->
     <g style="fill: #470d60" transform="translate(225.698558 230.1468) rotate(-283.317327) scale(0.15 -0.15)">
      <use xlink:href="#DejaVuSans-32"/>
      <use xlink:href="#DejaVuSans-2e" x="63.623047"/>
      <use xlink:href="#DejaVuSans-30" x="95.410156"/>
     </g>
    </g>
   </g>
   <g id="text_15">
    <g clip-path="url(#pe5d3d80712)">
     <!-- 4.0 -->
     <g style="fill: #48186a" transform="translate(299.510778 248.958839) rotate(-87.778219) scale(0.15 -0.15)">
      <use xlink:href="#DejaVuSans-34"/>
      <use xlink:href="#DejaVuSans-2e" x="63.623047"/>
      <use xlink:href="#DejaVuSans-30" x="95.410156"/>
     </g>
    </g>
   </g>
   <g id="text_16">
    <g clip-path="url(#pe5d3d80712)">
     <!-- 8.0 -->
     <g style="fill: #472d7b" transform="translate(208.121138 275.279534) rotate(-297.6746) scale(0.15 -0.15)">
      <defs>
       <path id="DejaVuSans-38" d="M 2034 2216 
Q 1584 2216 1326 1975 
Q 1069 1734 1069 1313 
Q 1069 891 1326 650 
Q 1584 409 2034 409 
Q 2484 409 2743 651 
Q 3003 894 3003 1313 
Q 3003 1734 2745 1975 
Q 2488 2216 2034 2216 
z
M 1403 2484 
Q 997 2584 770 2862 
Q 544 3141 544 3541 
Q 544 4100 942 4425 
Q 1341 4750 2034 4750 
Q 2731 4750 3128 4425 
Q 3525 4100 3525 3541 
Q 3525 3141 3298 2862 
Q 3072 2584 2669 2484 
Q 3125 2378 3379 2068 
Q 3634 1759 3634 1313 
Q 3634 634 3220 271 
Q 2806 -91 2034 -91 
Q 1263 -91 848 271 
Q 434 634 434 1313 
Q 434 1759 690 2068 
Q 947 2378 1403 2484 
z
M 1172 3481 
Q 1172 3119 1398 2916 
Q 1625 2713 2034 2713 
Q 2441 2713 2670 2916 
Q 2900 3119 2900 3481 
Q 2900 3844 2670 4047 
Q 2441 4250 2034 4250 
Q 1625 4250 1398 4047 
Q 1172 3844 1172 3481 
z
" transform="scale(0.015625)"/>
      </defs>
      <use xlink:href="#DejaVuSans-38"/>
      <use xlink:href="#DejaVuSans-2e" x="63.623047"/>
      <use xlink:href="#DejaVuSans-30" x="95.410156"/>
     </g>
    </g>
   </g>
   <g id="text_17">
    <g clip-path="url(#pe5d3d80712)">
     <!-- 16.0 -->
     <g style="fill: #3b528b" transform="translate(338.16399 265.520873) rotate(-87.210384) scale(0.15 -0.15)">
      <use xlink:href="#DejaVuSans-31"/>
      <use xlink:href="#DejaVuSans-36" x="63.623047"/>
      <use xlink:href="#DejaVuSans-2e" x="127.246094"/>
      <use xlink:href="#DejaVuSans-30" x="159.033203"/>
     </g>
    </g>
   </g>
   <g id="text_18">
    <g clip-path="url(#pe5d3d80712)">
     <!-- 32.0 -->
     <g style="fill: #21918c" transform="translate(143.261184 228.554581) rotate(-276.094302) scale(0.15 -0.15)">
      <use xlink:href="#DejaVuSans-33"/>
      <use xlink:href="#DejaVuSans-32" x="63.623047"/>
      <use xlink:href="#DejaVuSans-2e" x="127.246094"/>
      <use xlink:href="#DejaVuSans-30" x="159.033203"/>
     </g>
    </g>
   </g>
   <g id="text_19">
    <g clip-path="url(#pe5d3d80712)">
     <!-- 64.0 -->
     <g style="fill: #fde725" transform="translate(98.984972 244.355315) rotate(-277.2378) scale(0.15 -0.15)">
      <use xlink:href="#DejaVuSans-36"/>
      <use xlink:href="#DejaVuSans-34" x="63.623047"/>
      <use xlink:href="#DejaVuSans-2e" x="127.246094"/>
      <use xlink:href="#DejaVuSans-30" x="159.033203"/>
     </g>
    </g>
   </g>
   <g id="text_20">
    <g clip-path="url(#pe5d3d80712)">
     <!-- 64.0 -->
     <g style="fill: #fde725" transform="translate(385.502976 109.484349) rotate(-287.29012) scale(0.15 -0.15)">
      <use xlink:href="#DejaVuSans-36"/>
      <use xlink:href="#DejaVuSans-34" x="63.623047"/>
      <use xlink:href="#DejaVuSans-2e" x="127.246094"/>
      <use xlink:href="#DejaVuSans-30" x="159.033203"/>
     </g>
    </g>
   </g>
  </g>
 </g>
 <defs>
  <clipPath id="pe5d3d80712">
   <rect x="63" y="60.48" width="390.6" height="388.08"/>
  </clipPath>
 </defs>
</svg>
