<?xml version="1.0" encoding="utf-8" standalone="no"?>
<!DOCTYPE svg PUBLIC "-//W3C//DTD SVG 1.1//EN"
  "http://www.w3.org/Graphics/SVG/1.1/DTD/svg11.dtd">
<svg xmlns:xlink="http://www.w3.org/1999/xlink" width="720pt" height="360pt" viewBox="0 0 720 360" xmlns="http://www.w3.org/2000/svg" version="1.1">
 <metadata>
  <rdf:RDF xmlns:dc="http://purl.org/dc/elements/1.1/" xmlns:cc="http://creativecommons.org/ns#" xmlns:rdf="http://www.w3.org/1999/02/22-rdf-syntax-ns#">
   <cc:Work>
    <dc:type rdf:resource="http://purl.org/dc/dcmitype/StillImage"/>
    <dc:date>2024-11-16T00:00:15.739177</dc:date>
    <dc:format>image/svg+xml</dc:format>
    <dc:creator>
     <cc:Agent>
      <dc:title>Matplotlib v3.9.2, https://matplotlib.org/</dc:title>
     </cc:Agent>
    </dc:creator>
   </cc:Work>
  </rdf:RDF>
 </metadata>
 <defs>
  <style type="text/css">*{stroke-linejoin: round; stroke-linecap: butt}</style>
 </defs>
 <g id="figure_1">
  <g id="patch_1">
   <path d="M 0 360 
L 720 360 
L 720 0 
L 0 0 
L 0 360 
z
" style="fill: none"/>
  </g>
  <g id="axes_1">
   <g id="patch_2">
    <path d="M 90 320.4 
L 343.636364 320.4 
L 343.636364 43.2 
L 90 43.2 
L 90 320.4 
z
" style="fill: none"/>
   </g>
   <g id="matplotlib.axis_1">
    <g id="xtick_1">
     <g id="line2d_1">
      <defs>
       <path id="md3258216e3" d="M 0 0 
L 0 3.5 
" style="stroke: #000000; stroke-width: 0.8"/>
      </defs>
      <g>
       <use xlink:href="#md3258216e3" x="157.636364" y="320.4" style="stroke: #000000; stroke-width: 0.8"/>
      </g>
     </g>
     <g id="text_1">
      <!-- 0 -->
      <g transform="translate(150.637614 344.116562) scale(0.22 -0.22)">
       <defs>
        <path id="DejaVuSans-30" d="M 2034 4250 
Q 1547 4250 1301 3770 
Q 1056 3291 1056 2328 
Q 1056 1369 1301 889 
Q 1547 409 2034 409 
Q 2525 409 2770 889 
Q 3016 1369 3016 2328 
Q 3016 3291 2770 3770 
Q 2525 4250 2034 4250 
z
M 2034 4750 
Q 2819 4750 3233 4129 
Q 3647 3509 3647 2328 
Q 3647 1150 3233 529 
Q 2819 -91 2034 -91 
Q 1250 -91 836 529 
Q 422 1150 422 2328 
Q 422 3509 836 4129 
Q 1250 4750 2034 4750 
z
" transform="scale(0.015625)"/>
       </defs>
       <use xlink:href="#DejaVuSans-30"/>
      </g>
     </g>
    </g>
    <g id="xtick_2">
     <g id="line2d_2">
      <g>
       <use xlink:href="#md3258216e3" x="242.181818" y="320.4" style="stroke: #000000; stroke-width: 0.8"/>
      </g>
     </g>
     <g id="text_2">
      <!-- 2 -->
      <g transform="translate(235.183068 344.116562) scale(0.22 -0.22)">
       <defs>
        <path id="DejaVuSans-32" d="M 1228 531 
L 3431 531 
L 3431 0 
L 469 0 
L 469 531 
Q 828 903 1448 1529 
Q 2069 2156 2228 2338 
Q 2531 2678 2651 2914 
Q 2772 3150 2772 3378 
Q 2772 3750 2511 3984 
Q 2250 4219 1831 4219 
Q 1534 4219 1204 4116 
Q 875 4013 500 3803 
L 500 4441 
Q 881 4594 1212 4672 
Q 1544 4750 1819 4750 
Q 2544 4750 2975 4387 
Q 3406 4025 3406 3419 
Q 3406 3131 3298 2873 
Q 3191 2616 2906 2266 
Q 2828 2175 2409 1742 
Q 1991 1309 1228 531 
z
" transform="scale(0.015625)"/>
       </defs>
       <use xlink:href="#DejaVuSans-32"/>
      </g>
     </g>
    </g>
    <g id="xtick_3">
     <g id="line2d_3">
      <g>
       <use xlink:href="#md3258216e3" x="326.727273" y="320.4" style="stroke: #000000; stroke-width: 0.8"/>
      </g>
     </g>
     <g id="text_3">
      <!-- 4 -->
      <g transform="translate(319.728523 344.116562) scale(0.22 -0.22)">
       <defs>
        <path id="DejaVuSans-34" d="M 2419 4116 
L 825 1625 
L 2419 1625 
L 2419 4116 
z
M 2253 4666 
L 3047 4666 
L 3047 1625 
L 3713 1625 
L 3713 1100 
L 3047 1100 
L 3047 0 
L 2419 0 
L 2419 1100 
L 313 1100 
L 313 1709 
L 2253 4666 
z
" transform="scale(0.015625)"/>
       </defs>
       <use xlink:href="#DejaVuSans-34"/>
      </g>
     </g>
    </g>
    <g id="text_4">
     <!-- $m$ -->
     <g transform="translate(207.018182 367.88875) scale(0.2 -0.2)">
      <defs>
       <path id="DejaVuSans-Oblique-6d" d="M 5747 2113 
L 5338 0 
L 4763 0 
L 5166 2094 
Q 5191 2228 5203 2325 
Q 5216 2422 5216 2491 
Q 5216 2772 5059 2928 
Q 4903 3084 4622 3084 
Q 4203 3084 3875 2770 
Q 3547 2456 3450 1953 
L 3066 0 
L 2491 0 
L 2900 2094 
Q 2925 2209 2937 2307 
Q 2950 2406 2950 2484 
Q 2950 2769 2794 2926 
Q 2638 3084 2363 3084 
Q 1938 3084 1609 2770 
Q 1281 2456 1184 1953 
L 800 0 
L 225 0 
L 909 3500 
L 1484 3500 
L 1375 2956 
Q 1609 3263 1923 3423 
Q 2238 3584 2597 3584 
Q 2978 3584 3223 3384 
Q 3469 3184 3519 2828 
Q 3781 3197 4126 3390 
Q 4472 3584 4856 3584 
Q 5306 3584 5551 3325 
Q 5797 3066 5797 2591 
Q 5797 2488 5784 2364 
Q 5772 2241 5747 2113 
z
" transform="scale(0.015625)"/>
      </defs>
      <use xlink:href="#DejaVuSans-Oblique-6d"/>
     </g>
    </g>
   </g>
   <g id="matplotlib.axis_2">
    <g id="ytick_1">
     <g id="line2d_4">
      <defs>
       <path id="mf2f0ce2c90" d="M 0 0 
L -3.5 0 
" style="stroke: #000000; stroke-width: 0.8"/>
      </defs>
      <g>
       <use xlink:href="#mf2f0ce2c90" x="90" y="315.78" style="stroke: #000000; stroke-width: 0.8"/>
      </g>
     </g>
     <g id="text_5">
      <!-- −6 -->
      <g transform="translate(50.567188 324.138281) scale(0.22 -0.22)">
       <defs>
        <path id="DejaVuSans-2212" d="M 678 2272 
L 4684 2272 
L 4684 1741 
L 678 1741 
L 678 2272 
z
" transform="scale(0.015625)"/>
        <path id="DejaVuSans-36" d="M 2113 2584 
Q 1688 2584 1439 2293 
Q 1191 2003 1191 1497 
Q 1191 994 1439 701 
Q 1688 409 2113 409 
Q 2538 409 2786 701 
Q 3034 994 3034 1497 
Q 3034 2003 2786 2293 
Q 2538 2584 2113 2584 
z
M 3366 4563 
L 3366 3988 
Q 3128 4100 2886 4159 
Q 2644 4219 2406 4219 
Q 1781 4219 1451 3797 
Q 1122 3375 1075 2522 
Q 1259 2794 1537 2939 
Q 1816 3084 2150 3084 
Q 2853 3084 3261 2657 
Q 3669 2231 3669 1497 
Q 3669 778 3244 343 
Q 2819 -91 2113 -91 
Q 1303 -91 875 529 
Q 447 1150 447 2328 
Q 447 3434 972 4092 
Q 1497 4750 2381 4750 
Q 2619 4750 2861 4703 
Q 3103 4656 3366 4563 
z
" transform="scale(0.015625)"/>
       </defs>
       <use xlink:href="#DejaVuSans-2212"/>
       <use xlink:href="#DejaVuSans-36" x="83.789062"/>
      </g>
     </g>
    </g>
    <g id="ytick_2">
     <g id="line2d_5">
      <g>
       <use xlink:href="#mf2f0ce2c90" x="90" y="269.58" style="stroke: #000000; stroke-width: 0.8"/>
      </g>
     </g>
     <g id="text_6">
      <!-- −5 -->
      <g transform="translate(50.567188 277.938281) scale(0.22 -0.22)">
       <defs>
        <path id="DejaVuSans-35" d="M 691 4666 
L 3169 4666 
L 3169 4134 
L 1269 4134 
L 1269 2991 
Q 1406 3038 1543 3061 
Q 1681 3084 1819 3084 
Q 2600 3084 3056 2656 
Q 3513 2228 3513 1497 
Q 3513 744 3044 326 
Q 2575 -91 1722 -91 
Q 1428 -91 1123 -41 
Q 819 9 494 109 
L 494 744 
Q 775 591 1075 516 
Q 1375 441 1709 441 
Q 2250 441 2565 725 
Q 2881 1009 2881 1497 
Q 2881 1984 2565 2268 
Q 2250 2553 1709 2553 
Q 1456 2553 1204 2497 
Q 953 2441 691 2322 
L 691 4666 
z
" transform="scale(0.015625)"/>
       </defs>
       <use xlink:href="#DejaVuSans-2212"/>
       <use xlink:href="#DejaVuSans-35" x="83.789062"/>
      </g>
     </g>
    </g>
    <g id="ytick_3">
     <g id="line2d_6">
      <g>
       <use xlink:href="#mf2f0ce2c90" x="90" y="223.38" style="stroke: #000000; stroke-width: 0.8"/>
      </g>
     </g>
     <g id="text_7">
      <!-- −4 -->
      <g transform="translate(50.567188 231.738281) scale(0.22 -0.22)">
       <use xlink:href="#DejaVuSans-2212"/>
       <use xlink:href="#DejaVuSans-34" x="83.789062"/>
      </g>
     </g>
    </g>
    <g id="ytick_4">
     <g id="line2d_7">
      <g>
       <use xlink:href="#mf2f0ce2c90" x="90" y="177.18" style="stroke: #000000; stroke-width: 0.8"/>
      </g>
     </g>
     <g id="text_8">
      <!-- −3 -->
      <g transform="translate(50.567188 185.538281) scale(0.22 -0.22)">
       <defs>
        <path id="DejaVuSans-33" d="M 2597 2516 
Q 3050 2419 3304 2112 
Q 3559 1806 3559 1356 
Q 3559 666 3084 287 
Q 2609 -91 1734 -91 
Q 1441 -91 1130 -33 
Q 819 25 488 141 
L 488 750 
Q 750 597 1062 519 
Q 1375 441 1716 441 
Q 2309 441 2620 675 
Q 2931 909 2931 1356 
Q 2931 1769 2642 2001 
Q 2353 2234 1838 2234 
L 1294 2234 
L 1294 2753 
L 1863 2753 
Q 2328 2753 2575 2939 
Q 2822 3125 2822 3475 
Q 2822 3834 2567 4026 
Q 2313 4219 1838 4219 
Q 1578 4219 1281 4162 
Q 984 4106 628 3988 
L 628 4550 
Q 988 4650 1302 4700 
Q 1616 4750 1894 4750 
Q 2613 4750 3031 4423 
Q 3450 4097 3450 3541 
Q 3450 3153 3228 2886 
Q 3006 2619 2597 2516 
z
" transform="scale(0.015625)"/>
       </defs>
       <use xlink:href="#DejaVuSans-2212"/>
       <use xlink:href="#DejaVuSans-33" x="83.789062"/>
      </g>
     </g>
    </g>
    <g id="ytick_5">
     <g id="line2d_8">
      <g>
       <use xlink:href="#mf2f0ce2c90" x="90" y="130.98" style="stroke: #000000; stroke-width: 0.8"/>
      </g>
     </g>
     <g id="text_9">
      <!-- −2 -->
      <g transform="translate(50.567188 139.338281) scale(0.22 -0.22)">
       <use xlink:href="#DejaVuSans-2212"/>
       <use xlink:href="#DejaVuSans-32" x="83.789062"/>
      </g>
     </g>
    </g>
    <g id="ytick_6">
     <g id="line2d_9">
      <g>
       <use xlink:href="#mf2f0ce2c90" x="90" y="84.78" style="stroke: #000000; stroke-width: 0.8"/>
      </g>
     </g>
     <g id="text_10">
      <!-- −1 -->
      <g transform="translate(50.567188 93.138281) scale(0.22 -0.22)">
       <defs>
        <path id="DejaVuSans-31" d="M 794 531 
L 1825 531 
L 1825 4091 
L 703 3866 
L 703 4441 
L 1819 4666 
L 2450 4666 
L 2450 531 
L 3481 531 
L 3481 0 
L 794 0 
L 794 531 
z
" transform="scale(0.015625)"/>
       </defs>
       <use xlink:href="#DejaVuSans-2212"/>
       <use xlink:href="#DejaVuSans-31" x="83.789062"/>
      </g>
     </g>
    </g>
    <g id="text_11">
     <!-- $c$ -->
     <g transform="translate(42.407813 187.3) rotate(-90) scale(0.2 -0.2)">
      <defs>
       <path id="DejaVuSans-Oblique-63" d="M 3431 3366 
L 3316 2797 
Q 3109 2947 2876 3022 
Q 2644 3097 2394 3097 
Q 2119 3097 1870 3000 
Q 1622 2903 1453 2725 
Q 1184 2453 1037 2087 
Q 891 1722 891 1331 
Q 891 859 1127 628 
Q 1363 397 1844 397 
Q 2081 397 2348 469 
Q 2616 541 2906 684 
L 2797 116 
Q 2547 13 2283 -39 
Q 2019 -91 1741 -91 
Q 1044 -91 669 257 
Q 294 606 294 1253 
Q 294 1797 489 2255 
Q 684 2713 1069 3078 
Q 1331 3328 1684 3456 
Q 2038 3584 2456 3584 
Q 2700 3584 2940 3529 
Q 3181 3475 3431 3366 
z
" transform="scale(0.015625)"/>
      </defs>
      <use xlink:href="#DejaVuSans-Oblique-63"/>
     </g>
    </g>
   </g>
   <g id="QuadContourSet_1">
    <path clip-path="url(#pd6c45796ec)" style="fill: none; stroke: #440154; stroke-width: 1.5"/>
    <path d="M 224.199947 163.870206 
L 224.092631 166.4 
L 223.676831 169.2 
L 223.22314 170.956803 
L 222.816067 172 
L 221.231572 174.8 
L 220.661157 175.563139 
L 218.099174 177.207176 
L 215.53719 177.145654 
L 212.975207 175.52295 
L 212.38178 174.8 
L 210.476672 172 
L 210.413223 171.880599 
L 209.456166 169.2 
L 208.741992 166.4 
L 208.328047 163.6 
L 208.230915 160.8 
L 208.468425 158 
L 208.868427 156.105999 
" clip-path="url(#pd6c45796ec)" style="fill: none; stroke: #450457; stroke-width: 1.5"/>
    <path d="M 206.14957 172.784745 
L 205.866617 172 
L 205.289256 169.976798 
L 205.110591 169.2 
L 204.646023 166.4 
L 204.36166 163.6 
L 204.263259 160.8 
L 204.356823 158 
L 204.64862 155.2 
L 205.145188 152.4 
L 205.289256 151.825343 
L 206.012697 149.6 
L 207.207523 146.8 
L 207.85124 145.584095 
L 209.051038 144 
L 210.413223 142.502541 
L 212.494305 141.2 
L 212.975207 140.942163 
L 215.53719 140.568829 
L 218.099174 141.163312 
L 218.160265 141.2 
L 220.661157 142.876212 
L 221.716113 144 
L 223.22314 145.816162 
L 223.818684 146.8 
L 225.283823 149.6 
L 225.785124 150.740586 
L 226.357395 152.4 
L 227.13191 155.2 
L 227.713212 158 
L 228.094428 160.8 
L 228.268353 163.6 
L 228.227433 166.4 
L 227.963742 169.2 
L 227.468958 172 
L 226.734342 174.8 
L 226.477664 175.53098 
" clip-path="url(#pd6c45796ec)" style="fill: none; stroke: #46075a; stroke-width: 1.5"/>
    <path d="M 198.939538 156.55788 
L 199.01815 155.2 
L 199.320897 152.4 
L 199.767548 149.6 
L 200.165289 147.720059 
L 200.397196 146.8 
L 201.279068 144 
L 202.346447 141.2 
L 202.727273 140.346902 
L 203.806821 138.4 
L 205.289256 136.084088 
L 205.69813 135.6 
L 207.85124 133.351542 
L 208.627372 132.8 
L 210.413223 131.664838 
L 212.975207 130.790573 
L 215.53719 130.647917 
L 218.099174 131.209152 
L 220.661157 132.447943 
L 221.133264 132.8 
L 223.22314 134.485381 
L 224.251742 135.6 
L 225.785124 137.408946 
L 226.454094 138.4 
L 228.174661 141.2 
L 228.347107 141.512763 
L 229.484311 144 
L 230.621407 146.8 
L 230.909091 147.617872 
L 231.503816 149.6 
L 232.213165 152.4 
L 232.790571 155.2 
L 233.232868 158 
L 233.471074 160.198413 
L 233.527731 160.8 
L 233.667326 163.6 
L 233.681652 166.4 
L 233.568039 169.2 
L 233.471074 170.31613 
L 233.29941 172 
L 232.858479 174.8 
L 232.257148 177.6 
L 231.491301 180.4 
L 230.909091 182.149869 
L 230.484075 183.2 
L 229.144875 186 
L 228.347107 187.439969 
L 227.382707 188.8 
L 225.785124 190.777021 
L 224.861564 191.6 
L 223.22314 192.900682 
L 220.661157 194.147307 
L 219.323468 194.4 
L 218.099174 194.608795 
L 215.808048 194.4 
L 215.53719 194.373372 
L 212.975207 193.41119 
L 210.413223 191.768642 
L 210.22734 191.6 
L 207.85124 189.265062 
L 207.48378 188.8 
L 205.720417 186.36349 
" clip-path="url(#pd6c45796ec)" style="fill: none; stroke: #470d60; stroke-width: 1.5"/>
    <path d="M 218.099174 208.430974 
L 217.818294 208.4 
L 215.53719 208.134871 
L 212.975207 207.350792 
L 210.413223 206.093509 
L 209.681906 205.6 
L 207.85124 204.295439 
L 206.195533 202.8 
L 205.289256 201.932886 
L 203.621079 200 
L 202.727273 198.899046 
L 201.55259 197.2 
L 200.165289 195.058356 
L 199.793929 194.4 
L 198.32581 191.6 
L 197.603306 190.110846 
L 197.040534 188.8 
L 195.938661 186 
L 195.041322 183.495205 
L 194.946545 183.2 
L 194.14218 180.4 
L 193.429507 177.6 
L 192.81007 174.8 
L 192.479339 173.03116 
L 192.304946 172 
L 191.920131 169.2 
L 191.623879 166.4 
L 191.417559 163.6 
L 191.30257 160.8 
L 191.280339 158 
L 191.352323 155.2 
L 191.520012 152.4 
L 191.784923 149.6 
L 192.14861 146.8 
L 192.479339 144.801368 
L 192.628454 144 
L 193.262049 141.2 
L 194.012526 138.4 
L 194.882019 135.6 
L 195.041322 135.147451 
L 195.987595 132.8 
L 197.257575 130 
L 197.603306 129.312486 
L 198.84747 127.2 
L 200.165289 125.170977 
L 200.769455 124.4 
L 202.727273 122.114608 
L 203.282881 121.6 
L 205.289256 119.887658 
L 207.012196 118.8 
L 207.85124 118.308905 
L 210.413223 117.325104 
L 212.975207 116.852246 
L 215.53719 116.87681 
L 218.099174 117.38575 
L 220.661157 118.366472 
L 221.427644 118.8 
L 223.22314 119.871629 
L 225.425451 121.6 
L 225.785124 121.898772 
L 228.214392 124.4 
L 228.347107 124.545131 
L 230.381728 127.2 
L 230.909091 127.933682 
L 232.187347 130 
L 233.471074 132.222276 
L 233.763983 132.8 
L 235.076734 135.6 
L 236.033058 137.813835 
L 236.25851 138.4 
L 237.237341 141.2 
L 238.121347 144 
L 238.595041 145.688225 
L 238.875846 146.8 
L 239.492061 149.6 
L 240.018111 152.4 
L 240.224272 153.728762 
M 239.08415 184.553311 
L 238.733079 186 
L 238.595041 186.490733 
L 237.857451 188.8 
L 236.834193 191.6 
L 236.033058 193.544763 
L 235.625108 194.4 
L 234.138219 197.2 
L 233.471074 198.338118 
L 232.312545 200 
L 230.909091 201.836903 
L 230.001486 202.8 
L 228.347107 204.414163 
L 226.761628 205.6 
L 225.785124 206.275931 
L 223.22314 207.517484 
L 220.661157 208.231731 
L 218.521793 208.4 
L 218.099174 208.430974 
" clip-path="url(#pd6c45796ec)" style="fill: none; stroke: #48186a; stroke-width: 1.5"/>
    <path d="M 184.867676 188.289642 
L 184.264361 186 
L 182.995094 180.4 
L 182.003904 174.8 
L 181.315435 169.2 
L 180.880965 163.6 
L 180.706116 158 
L 180.796674 152.4 
L 181.158602 146.8 
L 181.79804 141.2 
L 182.761184 135.6 
L 184.074732 130 
L 184.857536 127.2 
L 186.822434 121.6 
L 188.001605 118.8 
L 189.917355 114.87194 
L 192.479339 110.599775 
L 194.705789 107.6 
L 195.041322 107.176726 
L 197.603306 104.404818 
L 200.415819 102 
L 202.727273 100.444803 
L 205.289256 99.11248 
L 207.85124 98.199057 
L 210.413223 97.642172 
L 212.975207 97.435208 
L 215.53719 97.571709 
L 218.099174 98.045381 
L 221.451388 99.2 
L 223.22314 100.014416 
L 226.441014 102 
L 228.347107 103.428623 
L 230.909091 105.728179 
L 233.471074 108.476626 
L 236.033058 111.734002 
L 238.849558 116 
L 241.157025 120.151578 
L 243.165925 124.4 
L 244.336207 127.2 
L 246.372819 132.8 
L 248.000647 138.4 
L 249.326193 144 
L 250.33843 149.6 
L 251.093307 155.2 
L 251.572319 160.8 
L 251.778857 166.4 
L 251.72922 172 
L 251.404959 177.741648 
L 250.794981 183.2 
L 249.87562 188.8 
L 248.637436 194.4 
L 246.972858 200 
L 245.985105 202.8 
L 243.570816 208.4 
L 241.157025 212.805156 
L 238.595041 216.593946 
L 238.432182 216.8 
L 236.033058 219.648052 
L 233.095405 222.4 
L 230.909091 224.044454 
L 228.347107 225.558684 
L 225.785124 226.649006 
L 223.22314 227.374894 
L 220.661157 227.74322 
L 218.099174 227.760681 
L 215.53719 227.43381 
L 212.975207 226.768977 
L 210.413223 225.772398 
L 207.85124 224.416538 
L 204.912845 222.4 
L 201.716009 219.6 
L 199.08926 216.8 
L 198.354197 215.918944 
L 198.354197 215.918944 
" clip-path="url(#pd6c45796ec)" style="fill: none; stroke: #472d7b; stroke-width: 1.5"/>
    <path d="M 177.828563 96.986698 
L 179.669421 93.486 
L 182.231405 89.307104 
L 185.194443 85.2 
L 187.54227 82.4 
L 190.286496 79.6 
L 193.59997 76.8 
L 195.041322 75.731226 
L 197.80592 74 
L 200.165289 72.798341 
L 202.727273 71.755737 
L 205.289256 70.979303 
L 207.85124 70.467674 
L 210.413223 70.200479 
L 212.975207 70.17456 
L 215.53719 70.38681 
L 218.099174 70.834176 
L 220.661157 71.523341 
L 223.22314 72.459874 
L 226.461529 74 
L 228.347107 75.061089 
L 230.991756 76.8 
L 234.508784 79.6 
L 237.505988 82.4 
L 240.122782 85.2 
L 242.452818 88 
L 244.561339 90.8 
L 246.495189 93.6 
L 248.842975 97.384483 
L 251.404959 102.018104 
L 254.09216 107.6 
L 256.528926 113.436343 
L 259.090909 120.67711 
L 260.22435 124.4 
L 261.76062 130 
L 263.042473 135.6 
L 264.214876 141.62221 
L 265.014596 146.8 
L 265.704348 152.4 
L 266.212668 158 
L 266.536695 163.6 
L 266.673505 169.2 
L 266.620115 174.8 
L 266.373475 180.4 
L 265.930473 186 
L 265.287928 191.6 
L 264.214876 198.477706 
L 263.344063 202.8 
L 261.652893 209.734049 
L 260.376732 214 
L 258.435315 219.6 
L 256.113981 225.2 
L 253.316169 230.8 
L 251.404959 234.112009 
L 248.842975 237.957491 
L 246.280992 241.273671 
L 243.719008 244.126903 
L 241.157025 246.572898 
L 238.595041 248.658769 
L 236.033058 250.424635 
L 233.471074 251.862951 
L 230.443358 253.2 
L 228.347107 253.919295 
L 225.785124 254.547666 
L 223.22314 254.927896 
L 220.661157 255.063227 
L 218.099174 254.956847 
L 215.53719 254.611888 
L 212.975207 254.031428 
L 210.367966 253.2 
L 207.85124 252.144371 
L 204.564673 250.4 
L 202.727273 249.263336 
L 200.165289 247.437325 
L 197.039904 244.8 
L 194.174858 242 
L 191.649479 239.2 
L 189.38384 236.4 
L 187.32127 233.6 
L 184.793388 229.745075 
L 182.143841 225.2 
L 179.3084 219.6 
L 176.842898 214 
L 174.545455 207.967433 
L 172.852986 202.8 
L 171.245741 197.2 
L 169.421488 189.585131 
L 168.712755 186 
L 167.760052 180.4 
L 166.859504 173.652837 
L 166.425421 169.2 
L 166.046682 163.6 
L 165.849031 158 
L 165.835267 152.4 
L 166.00825 146.8 
L 166.370896 141.2 
L 166.8887 135.960957 
L 166.8887 135.960957 
" clip-path="url(#pd6c45796ec)" style="fill: none; stroke: #3b528b; stroke-width: 1.5"/>
    <path d="M 239.918034 43.2 
L 243.228663 46 
L 243.719008 46.435609 
L 246.280992 48.888687 
L 248.870503 51.6 
L 251.404959 54.48969 
L 253.966942 57.668001 
L 257.691804 62.8 
L 259.56256 65.6 
L 262.971245 71.2 
L 264.550073 74 
L 267.446628 79.6 
L 270.065188 85.2 
L 272.437632 90.8 
L 274.591143 96.4 
L 277.431644 104.8 
L 279.87186 113.2 
L 281.941906 121.6 
L 283.121747 127.2 
L 284.710744 136.042918 
L 285.826899 144 
L 286.724407 152.4 
L 287.329153 160.8 
L 287.62932 169.2 
L 287.63957 177.6 
L 287.355164 186 
L 286.989242 191.6 
L 286.173256 200 
L 285.037462 208.4 
L 284.075718 214 
L 282.948742 219.6 
L 281.647588 225.2 
L 279.586777 232.748414 
L 278.440011 236.4 
L 276.50729 242 
L 274.316683 247.6 
L 271.824713 253.2 
L 268.977545 258.8 
L 265.707713 264.4 
L 263.897999 267.2 
L 261.652893 270.381284 
L 259.090909 273.657976 
L 256.528926 276.609389 
L 253.966942 279.263552 
L 251.404959 281.645363 
L 248.539157 284 
L 244.527702 286.8 
L 243.719008 287.315655 
L 239.446669 289.6 
L 238.595041 290.007047 
L 236.033058 291.050386 
L 233.471074 291.911665 
L 230.909091 292.588422 
L 228.347107 293.079863 
L 225.785124 293.398234 
L 223.22314 293.545121 
L 220.661157 293.522094 
L 218.099174 293.330702 
L 215.53719 292.972474 
L 212.793377 292.4 
L 210.413223 291.747714 
L 207.85124 290.879674 
L 204.760176 289.6 
L 202.727273 288.631574 
L 199.429742 286.8 
L 197.603306 285.672143 
L 195.041322 283.92194 
L 191.554747 281.2 
L 188.367625 278.4 
L 185.499126 275.6 
L 182.887767 272.8 
L 180.486928 270 
L 178.260618 267.2 
L 176.180607 264.4 
L 174.224441 261.6 
L 170.67599 256 
L 169.035892 253.2 
L 166.030139 247.6 
L 163.316409 242 
L 160.860614 236.4 
L 158.633776 230.8 
L 156.611098 225.2 
L 153.948676 216.8 
L 151.674927 208.4 
L 150.366601 202.8 
L 148.7564 194.892782 
M 144.839234 154.540789 
L 144.864159 146.8 
L 145.182753 138.4 
L 145.806349 130 
L 146.395216 124.4 
L 147.582689 116 
L 148.92562 108.507109 
L 149.713791 104.8 
L 151.487603 97.472348 
L 152.572922 93.6 
L 154.302832 88 
L 156.61157 81.512773 
L 159.173554 75.275859 
L 161.735537 69.815656 
L 164.297521 64.977471 
L 167.286051 60 
L 169.421488 56.79524 
L 171.983471 53.323395 
L 174.545455 50.195364 
L 177.107438 47.380924 
L 179.669421 44.853293 
L 181.525528 43.2 
L 181.525528 43.2 
" clip-path="url(#pd6c45796ec)" style="fill: none; stroke: #21918c; stroke-width: 1.5"/>
    <path d="M 170.709068 320.4 
L 166.859504 316.073692 
L 163.538051 312 
L 159.332854 306.4 
L 156.61157 302.46888 
L 156.005057 301.54739 
M 137.234963 265.530498 
L 135.658578 261.6 
L 132.554871 253.2 
L 129.760338 244.8 
L 127.25318 236.4 
L 125.013603 228 
L 123.023588 219.6 
L 121.280587 211.2 
L 119.768071 202.8 
L 118.471315 194.4 
L 117.399318 186 
L 116.536315 177.6 
L 115.877304 169.2 
L 115.429587 160.8 
L 115.191953 152.4 
L 115.160292 144 
L 115.336988 135.6 
L 115.727203 127.2 
L 116.343733 118.8 
L 117.181821 110.4 
L 118.245837 102 
L 119.570398 93.6 
L 121.142223 85.2 
L 122.993521 76.8 
L 124.397282 71.2 
L 126.759625 62.8 
L 128.517609 57.2 
L 131.485397 48.8 
L 133.687144 43.2 
M 287.757618 43.2 
L 290.479912 48.8 
L 293.016505 54.4 
L 295.38254 60 
L 298.62922 68.4 
L 298.975432 69.356128 
M 310.073807 108.458866 
L 311.577481 116 
L 313.045692 124.4 
L 314.280024 132.8 
L 315.454545 142.540081 
L 316.121245 149.6 
L 316.72482 158 
L 317.123765 166.4 
L 317.315696 174.8 
L 317.298193 183.2 
L 317.068795 191.6 
L 316.625004 200 
L 315.964284 208.4 
L 315.074111 216.8 
L 313.942002 225.2 
L 312.570049 233.6 
L 310.928197 242 
L 309.680098 247.6 
L 307.564685 256 
L 305.12493 264.4 
L 302.324965 272.8 
L 300.082645 278.814855 
L 297.520661 285.039592 
L 294.958678 290.701637 
L 292.396694 295.883867 
L 289.750046 300.8 
L 286.428987 306.4 
L 282.751234 312 
L 280.745991 314.8 
L 278.621213 317.6 
L 276.358416 320.4 
L 276.358416 320.4 
" clip-path="url(#pd6c45796ec)" style="fill: none; stroke: #fde725; stroke-width: 1.5"/>
   </g>
   <g id="line2d_10">
    <defs>
     <path id="m21a469c174" d="M 0 -3 
L -0.673542 -0.927051 
L -2.85317 -0.927051 
L -1.089814 0.354102 
L -1.763356 2.427051 
L -0 1.145898 
L 1.763356 2.427051 
L 1.089814 0.354102 
L 2.85317 -0.927051 
L 0.673542 -0.927051 
z
" style="stroke: #008000; stroke-linejoin: bevel"/>
    </defs>
    <g clip-path="url(#pd6c45796ec)">
     <use xlink:href="#m21a469c174" x="159.135324" y="266.752822" style="fill: #008000; stroke: #008000; stroke-linejoin: bevel"/>
    </g>
   </g>
   <g id="line2d_11">
    <g clip-path="url(#pd6c45796ec)">
     <use xlink:href="#m21a469c174" x="158.636047" y="266.276938" style="fill: #008000; stroke: #008000; stroke-linejoin: bevel"/>
    </g>
   </g>
   <g id="line2d_12">
    <g clip-path="url(#pd6c45796ec)">
     <use xlink:href="#m21a469c174" x="160.093589" y="263.527878" style="fill: #008000; stroke: #008000; stroke-linejoin: bevel"/>
    </g>
   </g>
   <g id="line2d_13">
    <g clip-path="url(#pd6c45796ec)">
     <use xlink:href="#m21a469c174" x="161.512515" y="260.851651" style="fill: #008000; stroke: #008000; stroke-linejoin: bevel"/>
    </g>
   </g>
   <g id="line2d_14">
    <g clip-path="url(#pd6c45796ec)">
     <use xlink:href="#m21a469c174" x="162.893848" y="258.246329" style="fill: #008000; stroke: #008000; stroke-linejoin: bevel"/>
    </g>
   </g>
   <g id="line2d_15">
    <g clip-path="url(#pd6c45796ec)">
     <use xlink:href="#m21a469c174" x="164.238584" y="255.710033" style="fill: #008000; stroke: #008000; stroke-linejoin: bevel"/>
    </g>
   </g>
   <g id="line2d_16">
    <g clip-path="url(#pd6c45796ec)">
     <use xlink:href="#m21a469c174" x="163.837662" y="255.327895" style="fill: #008000; stroke: #008000; stroke-linejoin: bevel"/>
    </g>
   </g>
   <g id="line2d_17">
    <g clip-path="url(#pd6c45796ec)">
     <use xlink:href="#m21a469c174" x="165.145401" y="252.861377" style="fill: #008000; stroke: #008000; stroke-linejoin: bevel"/>
    </g>
   </g>
   <g id="line2d_18">
    <g clip-path="url(#pd6c45796ec)">
     <use xlink:href="#m21a469c174" x="164.797363" y="252.631466" style="fill: #008000; stroke: #008000; stroke-linejoin: bevel"/>
    </g>
   </g>
   <g id="line2d_19">
    <g clip-path="url(#pd6c45796ec)">
     <use xlink:href="#m21a469c174" x="164.473156" y="252.417298" style="fill: #008000; stroke: #008000; stroke-linejoin: bevel"/>
    </g>
   </g>
   <g id="line2d_20">
    <g clip-path="url(#pd6c45796ec)">
     <use xlink:href="#m21a469c174" x="164.171148" y="252.217795" style="fill: #008000; stroke: #008000; stroke-linejoin: bevel"/>
    </g>
   </g>
   <g id="line2d_21">
    <g clip-path="url(#pd6c45796ec)">
     <use xlink:href="#m21a469c174" x="168.818673" y="239.619139" style="fill: #008000; stroke: #008000; stroke-linejoin: bevel"/>
    </g>
   </g>
   <g id="line2d_22">
    <g clip-path="url(#pd6c45796ec)">
     <use xlink:href="#m21a469c174" x="172.363695" y="230.999453" style="fill: #008000; stroke: #008000; stroke-linejoin: bevel"/>
    </g>
   </g>
   <g id="line2d_23">
    <g clip-path="url(#pd6c45796ec)">
     <use xlink:href="#m21a469c174" x="173.782497" y="226.815233" style="fill: #008000; stroke: #008000; stroke-linejoin: bevel"/>
    </g>
   </g>
   <g id="line2d_24">
    <g clip-path="url(#pd6c45796ec)">
     <use xlink:href="#m21a469c174" x="174.491192" y="224.834406" style="fill: #008000; stroke: #008000; stroke-linejoin: bevel"/>
    </g>
   </g>
   <g id="line2d_25">
    <g clip-path="url(#pd6c45796ec)">
     <use xlink:href="#m21a469c174" x="178.03563" y="218.20895" style="fill: #008000; stroke: #008000; stroke-linejoin: bevel"/>
    </g>
   </g>
   <g id="line2d_26">
    <g clip-path="url(#pd6c45796ec)">
     <use xlink:href="#m21a469c174" x="181.423309" y="212.448483" style="fill: #008000; stroke: #008000; stroke-linejoin: bevel"/>
    </g>
   </g>
   <g id="line2d_27">
    <g clip-path="url(#pd6c45796ec)">
     <use xlink:href="#m21a469c174" x="183.864132" y="208.635334" style="fill: #008000; stroke: #008000; stroke-linejoin: bevel"/>
    </g>
   </g>
   <g id="line2d_28">
    <g clip-path="url(#pd6c45796ec)">
     <use xlink:href="#m21a469c174" x="185.591937" y="206.458321" style="fill: #008000; stroke: #008000; stroke-linejoin: bevel"/>
    </g>
   </g>
   <g id="line2d_29">
    <g clip-path="url(#pd6c45796ec)">
     <use xlink:href="#m21a469c174" x="188.446221" y="202.102129" style="fill: #008000; stroke: #008000; stroke-linejoin: bevel"/>
    </g>
   </g>
   <g id="line2d_30">
    <g clip-path="url(#pd6c45796ec)">
     <use xlink:href="#m21a469c174" x="203.603753" y="179.389803" style="fill: #008000; stroke: #008000; stroke-linejoin: bevel"/>
    </g>
   </g>
   <g id="line2d_31">
    <g clip-path="url(#pd6c45796ec)">
     <use xlink:href="#m21a469c174" x="209.234917" y="171.762439" style="fill: #008000; stroke: #008000; stroke-linejoin: bevel"/>
    </g>
   </g>
   <g id="line2d_32">
    <g clip-path="url(#pd6c45796ec)">
     <use xlink:href="#m21a469c174" x="211.537102" y="167.179494" style="fill: #008000; stroke: #008000; stroke-linejoin: bevel"/>
    </g>
   </g>
   <g id="line2d_33">
    <g clip-path="url(#pd6c45796ec)">
     <use xlink:href="#m21a469c174" x="214.285671" y="166.922228" style="fill: #008000; stroke: #008000; stroke-linejoin: bevel"/>
    </g>
   </g>
   <g id="line2d_34">
    <g clip-path="url(#pd6c45796ec)">
     <use xlink:href="#m21a469c174" x="213.477915" y="165.022874" style="fill: #008000; stroke: #008000; stroke-linejoin: bevel"/>
    </g>
   </g>
   <g id="line2d_35">
    <g clip-path="url(#pd6c45796ec)">
     <use xlink:href="#m21a469c174" x="213.383389" y="165.28578" style="fill: #008000; stroke: #008000; stroke-linejoin: bevel"/>
    </g>
   </g>
   <g id="line2d_36">
    <g clip-path="url(#pd6c45796ec)">
     <use xlink:href="#m21a469c174" x="213.285199" y="165.082976" style="fill: #008000; stroke: #008000; stroke-linejoin: bevel"/>
    </g>
   </g>
   <g id="line2d_37">
    <g clip-path="url(#pd6c45796ec)">
     <use xlink:href="#m21a469c174" x="214.748806" y="165.414072" style="fill: #008000; stroke: #008000; stroke-linejoin: bevel"/>
    </g>
   </g>
   <g id="line2d_38">
    <g clip-path="url(#pd6c45796ec)">
     <use xlink:href="#m21a469c174" x="213.524958" y="165.039549" style="fill: #008000; stroke: #008000; stroke-linejoin: bevel"/>
    </g>
   </g>
   <g id="line2d_39">
    <g clip-path="url(#pd6c45796ec)">
     <use xlink:href="#m21a469c174" x="213.909816" y="165.634528" style="fill: #008000; stroke: #008000; stroke-linejoin: bevel"/>
    </g>
   </g>
   <g id="line2d_40">
    <g clip-path="url(#pd6c45796ec)">
     <use xlink:href="#m21a469c174" x="212.831471" y="164.846798" style="fill: #008000; stroke: #008000; stroke-linejoin: bevel"/>
    </g>
   </g>
   <g id="line2d_41">
    <g clip-path="url(#pd6c45796ec)">
     <use xlink:href="#m21a469c174" x="214.922201" y="165.992937" style="fill: #008000; stroke: #008000; stroke-linejoin: bevel"/>
    </g>
   </g>
   <g id="line2d_42">
    <g clip-path="url(#pd6c45796ec)">
     <use xlink:href="#m21a469c174" x="211.965324" y="164.088875" style="fill: #008000; stroke: #008000; stroke-linejoin: bevel"/>
    </g>
   </g>
   <g id="line2d_43">
    <g clip-path="url(#pd6c45796ec)">
     <use xlink:href="#m21a469c174" x="214.191278" y="165.799884" style="fill: #008000; stroke: #008000; stroke-linejoin: bevel"/>
    </g>
   </g>
   <g id="line2d_44">
    <g clip-path="url(#pd6c45796ec)">
     <use xlink:href="#m21a469c174" x="214.342057" y="165.97099" style="fill: #008000; stroke: #008000; stroke-linejoin: bevel"/>
    </g>
   </g>
   <g id="line2d_45">
    <g clip-path="url(#pd6c45796ec)">
     <use xlink:href="#m21a469c174" x="214.215032" y="165.286025" style="fill: #008000; stroke: #008000; stroke-linejoin: bevel"/>
    </g>
   </g>
   <g id="line2d_46">
    <g clip-path="url(#pd6c45796ec)">
     <use xlink:href="#m21a469c174" x="213.38747" y="164.224428" style="fill: #008000; stroke: #008000; stroke-linejoin: bevel"/>
    </g>
   </g>
   <g id="line2d_47">
    <g clip-path="url(#pd6c45796ec)">
     <use xlink:href="#m21a469c174" x="213.444607" y="164.674335" style="fill: #008000; stroke: #008000; stroke-linejoin: bevel"/>
    </g>
   </g>
   <g id="line2d_48">
    <g clip-path="url(#pd6c45796ec)">
     <use xlink:href="#m21a469c174" x="214.390887" y="165.364712" style="fill: #008000; stroke: #008000; stroke-linejoin: bevel"/>
    </g>
   </g>
   <g id="line2d_49">
    <g clip-path="url(#pd6c45796ec)">
     <use xlink:href="#m21a469c174" x="213.672046" y="164.54194" style="fill: #008000; stroke: #008000; stroke-linejoin: bevel"/>
    </g>
   </g>
   <g id="line2d_50">
    <g clip-path="url(#pd6c45796ec)">
     <use xlink:href="#m21a469c174" x="213.556226" y="164.693539" style="fill: #008000; stroke: #008000; stroke-linejoin: bevel"/>
    </g>
   </g>
   <g id="line2d_51">
    <g clip-path="url(#pd6c45796ec)">
     <use xlink:href="#m21a469c174" x="212.938694" y="164.178188" style="fill: #008000; stroke: #008000; stroke-linejoin: bevel"/>
    </g>
   </g>
   <g id="line2d_52">
    <g clip-path="url(#pd6c45796ec)">
     <use xlink:href="#m21a469c174" x="213.500596" y="164.749215" style="fill: #008000; stroke: #008000; stroke-linejoin: bevel"/>
    </g>
   </g>
   <g id="line2d_53">
    <g clip-path="url(#pd6c45796ec)">
     <use xlink:href="#m21a469c174" x="212.971625" y="164.517599" style="fill: #008000; stroke: #008000; stroke-linejoin: bevel"/>
    </g>
   </g>
   <g id="line2d_54">
    <g clip-path="url(#pd6c45796ec)">
     <use xlink:href="#m21a469c174" x="213.804921" y="165.193591" style="fill: #008000; stroke: #008000; stroke-linejoin: bevel"/>
    </g>
   </g>
   <g id="patch_3">
    <path d="M 90 320.4 
L 90 43.2 
" style="fill: none; stroke: #000000; stroke-width: 0.8; stroke-linejoin: miter; stroke-linecap: square"/>
   </g>
   <g id="patch_4">
    <path d="M 343.636364 320.4 
L 343.636364 43.2 
" style="fill: none; stroke: #000000; stroke-width: 0.8; stroke-linejoin: miter; stroke-linecap: square"/>
   </g>
   <g id="patch_5">
    <path d="M 90 320.4 
L 343.636364 320.4 
" style="fill: none; stroke: #000000; stroke-width: 0.8; stroke-linejoin: miter; stroke-linecap: square"/>
   </g>
   <g id="patch_6">
    <path d="M 90 43.2 
L 343.636364 43.2 
" style="fill: none; stroke: #000000; stroke-width: 0.8; stroke-linejoin: miter; stroke-linecap: square"/>
   </g>
   <g id="text_12">
    <!-- Iteration 2600 -->
    <g transform="translate(145.772869 37.2) scale(0.2 -0.2)">
     <defs>
      <path id="DejaVuSans-49" d="M 628 4666 
L 1259 4666 
L 1259 0 
L 628 0 
L 628 4666 
z
" transform="scale(0.015625)"/>
      <path id="DejaVuSans-74" d="M 1172 4494 
L 1172 3500 
L 2356 3500 
L 2356 3053 
L 1172 3053 
L 1172 1153 
Q 1172 725 1289 603 
Q 1406 481 1766 481 
L 2356 481 
L 2356 0 
L 1766 0 
Q 1100 0 847 248 
Q 594 497 594 1153 
L 594 3053 
L 172 3053 
L 172 3500 
L 594 3500 
L 594 4494 
L 1172 4494 
z
" transform="scale(0.015625)"/>
      <path id="DejaVuSans-65" d="M 3597 1894 
L 3597 1613 
L 953 1613 
Q 991 1019 1311 708 
Q 1631 397 2203 397 
Q 2534 397 2845 478 
Q 3156 559 3463 722 
L 3463 178 
Q 3153 47 2828 -22 
Q 2503 -91 2169 -91 
Q 1331 -91 842 396 
Q 353 884 353 1716 
Q 353 2575 817 3079 
Q 1281 3584 2069 3584 
Q 2775 3584 3186 3129 
Q 3597 2675 3597 1894 
z
M 3022 2063 
Q 3016 2534 2758 2815 
Q 2500 3097 2075 3097 
Q 1594 3097 1305 2825 
Q 1016 2553 972 2059 
L 3022 2063 
z
" transform="scale(0.015625)"/>
      <path id="DejaVuSans-72" d="M 2631 2963 
Q 2534 3019 2420 3045 
Q 2306 3072 2169 3072 
Q 1681 3072 1420 2755 
Q 1159 2438 1159 1844 
L 1159 0 
L 581 0 
L 581 3500 
L 1159 3500 
L 1159 2956 
Q 1341 3275 1631 3429 
Q 1922 3584 2338 3584 
Q 2397 3584 2469 3576 
Q 2541 3569 2628 3553 
L 2631 2963 
z
" transform="scale(0.015625)"/>
      <path id="DejaVuSans-61" d="M 2194 1759 
Q 1497 1759 1228 1600 
Q 959 1441 959 1056 
Q 959 750 1161 570 
Q 1363 391 1709 391 
Q 2188 391 2477 730 
Q 2766 1069 2766 1631 
L 2766 1759 
L 2194 1759 
z
M 3341 1997 
L 3341 0 
L 2766 0 
L 2766 531 
Q 2569 213 2275 61 
Q 1981 -91 1556 -91 
Q 1019 -91 701 211 
Q 384 513 384 1019 
Q 384 1609 779 1909 
Q 1175 2209 1959 2209 
L 2766 2209 
L 2766 2266 
Q 2766 2663 2505 2880 
Q 2244 3097 1772 3097 
Q 1472 3097 1187 3025 
Q 903 2953 641 2809 
L 641 3341 
Q 956 3463 1253 3523 
Q 1550 3584 1831 3584 
Q 2591 3584 2966 3190 
Q 3341 2797 3341 1997 
z
" transform="scale(0.015625)"/>
      <path id="DejaVuSans-69" d="M 603 3500 
L 1178 3500 
L 1178 0 
L 603 0 
L 603 3500 
z
M 603 4863 
L 1178 4863 
L 1178 4134 
L 603 4134 
L 603 4863 
z
" transform="scale(0.015625)"/>
      <path id="DejaVuSans-6f" d="M 1959 3097 
Q 1497 3097 1228 2736 
Q 959 2375 959 1747 
Q 959 1119 1226 758 
Q 1494 397 1959 397 
Q 2419 397 2687 759 
Q 2956 1122 2956 1747 
Q 2956 2369 2687 2733 
Q 2419 3097 1959 3097 
z
M 1959 3584 
Q 2709 3584 3137 3096 
Q 3566 2609 3566 1747 
Q 3566 888 3137 398 
Q 2709 -91 1959 -91 
Q 1206 -91 779 398 
Q 353 888 353 1747 
Q 353 2609 779 3096 
Q 1206 3584 1959 3584 
z
" transform="scale(0.015625)"/>
      <path id="DejaVuSans-6e" d="M 3513 2113 
L 3513 0 
L 2938 0 
L 2938 2094 
Q 2938 2591 2744 2837 
Q 2550 3084 2163 3084 
Q 1697 3084 1428 2787 
Q 1159 2491 1159 1978 
L 1159 0 
L 581 0 
L 581 3500 
L 1159 3500 
L 1159 2956 
Q 1366 3272 1645 3428 
Q 1925 3584 2291 3584 
Q 2894 3584 3203 3211 
Q 3513 2838 3513 2113 
z
" transform="scale(0.015625)"/>
      <path id="DejaVuSans-20" transform="scale(0.015625)"/>
     </defs>
     <use xlink:href="#DejaVuSans-49"/>
     <use xlink:href="#DejaVuSans-74" x="29.492188"/>
     <use xlink:href="#DejaVuSans-65" x="68.701172"/>
     <use xlink:href="#DejaVuSans-72" x="130.224609"/>
     <use xlink:href="#DejaVuSans-61" x="171.337891"/>
     <use xlink:href="#DejaVuSans-74" x="232.617188"/>
     <use xlink:href="#DejaVuSans-69" x="271.826172"/>
     <use xlink:href="#DejaVuSans-6f" x="299.609375"/>
     <use xlink:href="#DejaVuSans-6e" x="360.791016"/>
     <use xlink:href="#DejaVuSans-20" x="424.169922"/>
     <use xlink:href="#DejaVuSans-32" x="455.957031"/>
     <use xlink:href="#DejaVuSans-36" x="519.580078"/>
     <use xlink:href="#DejaVuSans-30" x="583.203125"/>
     <use xlink:href="#DejaVuSans-30" x="646.826172"/>
    </g>
   </g>
   <g id="text_13">
    <g clip-path="url(#pd6c45796ec)">
     <!-- 0.5 -->
     <g style="fill: #450457" transform="translate(206.789134 147.553722) rotate(-331.5344) scale(0.15 -0.15)">
      <defs>
       <path id="DejaVuSans-2e" d="M 684 794 
L 1344 794 
L 1344 0 
L 684 0 
L 684 794 
z
" transform="scale(0.015625)"/>
      </defs>
      <use xlink:href="#DejaVuSans-30"/>
      <use xlink:href="#DejaVuSans-2e" x="63.623047"/>
      <use xlink:href="#DejaVuSans-35" x="95.410156"/>
     </g>
    </g>
   </g>
   <g id="text_14">
    <g clip-path="url(#pd6c45796ec)">
     <!-- 1.0 -->
     <g style="fill: #46075a" transform="translate(203.123695 186.720853) rotate(-351.367148) scale(0.15 -0.15)">
      <use xlink:href="#DejaVuSans-31"/>
      <use xlink:href="#DejaVuSans-2e" x="63.623047"/>
      <use xlink:href="#DejaVuSans-30" x="95.410156"/>
     </g>
    </g>
   </g>
   <g id="text_15">
    <g clip-path="url(#pd6c45796ec)">
     <!-- 2.0 -->
     <g style="fill: #470d60" transform="translate(193.427949 161.249647) rotate(-282.486225) scale(0.15 -0.15)">
      <use xlink:href="#DejaVuSans-32"/>
      <use xlink:href="#DejaVuSans-2e" x="63.623047"/>
      <use xlink:href="#DejaVuSans-30" x="95.410156"/>
     </g>
    </g>
   </g>
   <g id="text_16">
    <g clip-path="url(#pd6c45796ec)">
     <!-- 4.0 -->
     <g style="fill: #48186a" transform="translate(244.899885 181.268653) rotate(-87.936375) scale(0.15 -0.15)">
      <use xlink:href="#DejaVuSans-34"/>
      <use xlink:href="#DejaVuSans-2e" x="63.623047"/>
      <use xlink:href="#DejaVuSans-30" x="95.410156"/>
     </g>
    </g>
   </g>
   <g id="text_17">
    <g clip-path="url(#pd6c45796ec)">
     <!-- 8.0 -->
     <g style="fill: #472d7b" transform="translate(181.310009 193.847371) rotate(-295.699257) scale(0.15 -0.15)">
      <defs>
       <path id="DejaVuSans-38" d="M 2034 2216 
Q 1584 2216 1326 1975 
Q 1069 1734 1069 1313 
Q 1069 891 1326 650 
Q 1584 409 2034 409 
Q 2484 409 2743 651 
Q 3003 894 3003 1313 
Q 3003 1734 2745 1975 
Q 2488 2216 2034 2216 
z
M 1403 2484 
Q 997 2584 770 2862 
Q 544 3141 544 3541 
Q 544 4100 942 4425 
Q 1341 4750 2034 4750 
Q 2731 4750 3128 4425 
Q 3525 4100 3525 3541 
Q 3525 3141 3298 2862 
Q 3072 2584 2669 2484 
Q 3125 2378 3379 2068 
Q 3634 1759 3634 1313 
Q 3634 634 3220 271 
Q 2806 -91 2034 -91 
Q 1263 -91 848 271 
Q 434 634 434 1313 
Q 434 1759 690 2068 
Q 947 2378 1403 2484 
z
M 1172 3481 
Q 1172 3119 1398 2916 
Q 1625 2713 2034 2713 
Q 2441 2713 2670 2916 
Q 2900 3119 2900 3481 
Q 2900 3844 2670 4047 
Q 2441 4250 2034 4250 
Q 1625 4250 1398 4047 
Q 1172 3844 1172 3481 
z
" transform="scale(0.015625)"/>
      </defs>
      <use xlink:href="#DejaVuSans-38"/>
      <use xlink:href="#DejaVuSans-2e" x="63.623047"/>
      <use xlink:href="#DejaVuSans-30" x="95.410156"/>
     </g>
    </g>
   </g>
   <g id="text_18">
    <g clip-path="url(#pd6c45796ec)">
     <!-- 16.0 -->
     <g style="fill: #3b528b" transform="translate(170.224017 133.197891) rotate(-74.487811) scale(0.15 -0.15)">
      <use xlink:href="#DejaVuSans-31"/>
      <use xlink:href="#DejaVuSans-36" x="63.623047"/>
      <use xlink:href="#DejaVuSans-2e" x="127.246094"/>
      <use xlink:href="#DejaVuSans-30" x="159.033203"/>
     </g>
    </g>
   </g>
   <g id="text_19">
    <g clip-path="url(#pd6c45796ec)">
     <!-- 32.0 -->
     <g style="fill: #21918c" transform="translate(140.20651 158.579428) rotate(-275.550565) scale(0.15 -0.15)">
      <use xlink:href="#DejaVuSans-33"/>
      <use xlink:href="#DejaVuSans-32" x="63.623047"/>
      <use xlink:href="#DejaVuSans-2e" x="127.246094"/>
      <use xlink:href="#DejaVuSans-30" x="159.033203"/>
     </g>
    </g>
   </g>
   <g id="text_20">
    <g clip-path="url(#pd6c45796ec)">
     <!-- 64.0 -->
     <g style="fill: #fde725" transform="translate(134.36322 271.092764) rotate(-297.469516) scale(0.15 -0.15)">
      <use xlink:href="#DejaVuSans-36"/>
      <use xlink:href="#DejaVuSans-34" x="63.623047"/>
      <use xlink:href="#DejaVuSans-2e" x="127.246094"/>
      <use xlink:href="#DejaVuSans-30" x="159.033203"/>
     </g>
    </g>
   </g>
   <g id="text_21">
    <g clip-path="url(#pd6c45796ec)">
     <!-- 64.0 -->
     <g style="fill: #fde725" transform="translate(296.674368 73.773659) rotate(-285.810338) scale(0.15 -0.15)">
      <use xlink:href="#DejaVuSans-36"/>
      <use xlink:href="#DejaVuSans-34" x="63.623047"/>
      <use xlink:href="#DejaVuSans-2e" x="127.246094"/>
      <use xlink:href="#DejaVuSans-30" x="159.033203"/>
     </g>
    </g>
   </g>
  </g>
  <g id="axes_2">
   <g id="patch_7">
    <path d="M 394.363636 320.4 
L 648 320.4 
L 648 43.2 
L 394.363636 43.2 
L 394.363636 320.4 
z
" style="fill: none"/>
   </g>
   <g id="matplotlib.axis_3">
    <g id="xtick_4">
     <g id="line2d_55">
      <g>
       <use xlink:href="#md3258216e3" x="395.322407" y="320.4" style="stroke: #000000; stroke-width: 0.8"/>
      </g>
     </g>
     <g id="text_22">
      <!-- −2 -->
      <g transform="translate(379.106001 344.116562) scale(0.22 -0.22)">
       <use xlink:href="#DejaVuSans-2212"/>
       <use xlink:href="#DejaVuSans-32" x="83.789062"/>
      </g>
     </g>
    </g>
    <g id="xtick_5">
     <g id="line2d_56">
      <g>
       <use xlink:href="#md3258216e3" x="493.830593" y="320.4" style="stroke: #000000; stroke-width: 0.8"/>
      </g>
     </g>
     <g id="text_23">
      <!-- 0 -->
      <g transform="translate(486.831843 344.116562) scale(0.22 -0.22)">
       <use xlink:href="#DejaVuSans-30"/>
      </g>
     </g>
    </g>
    <g id="xtick_6">
     <g id="line2d_57">
      <g>
       <use xlink:href="#md3258216e3" x="592.338779" y="320.4" style="stroke: #000000; stroke-width: 0.8"/>
      </g>
     </g>
     <g id="text_24">
      <!-- 2 -->
      <g transform="translate(585.340029 344.116562) scale(0.22 -0.22)">
       <use xlink:href="#DejaVuSans-32"/>
      </g>
     </g>
    </g>
    <g id="text_25">
     <!-- $x$ -->
     <g transform="translate(515.181818 367.88875) scale(0.2 -0.2)">
      <defs>
       <path id="DejaVuSans-Oblique-78" d="M 3841 3500 
L 2234 1784 
L 3219 0 
L 2559 0 
L 1819 1388 
L 531 0 
L -166 0 
L 1556 1844 
L 641 3500 
L 1300 3500 
L 1972 2234 
L 3144 3500 
L 3841 3500 
z
" transform="scale(0.015625)"/>
      </defs>
      <use xlink:href="#DejaVuSans-Oblique-78" transform="translate(0 0.3125)"/>
     </g>
    </g>
   </g>
   <g id="matplotlib.axis_4">
    <g id="ytick_7">
     <g id="line2d_58">
      <g>
       <use xlink:href="#mf2f0ce2c90" x="394.363636" y="285.75" style="stroke: #000000; stroke-width: 0.8"/>
      </g>
     </g>
     <g id="text_26">
      <!-- −8 -->
      <g transform="translate(354.930824 294.108281) scale(0.22 -0.22)">
       <use xlink:href="#DejaVuSans-2212"/>
       <use xlink:href="#DejaVuSans-38" x="83.789062"/>
      </g>
     </g>
    </g>
    <g id="ytick_8">
     <g id="line2d_59">
      <g>
       <use xlink:href="#mf2f0ce2c90" x="394.363636" y="216.45" style="stroke: #000000; stroke-width: 0.8"/>
      </g>
     </g>
     <g id="text_27">
      <!-- −6 -->
      <g transform="translate(354.930824 224.808281) scale(0.22 -0.22)">
       <use xlink:href="#DejaVuSans-2212"/>
       <use xlink:href="#DejaVuSans-36" x="83.789062"/>
      </g>
     </g>
    </g>
    <g id="ytick_9">
     <g id="line2d_60">
      <g>
       <use xlink:href="#mf2f0ce2c90" x="394.363636" y="147.15" style="stroke: #000000; stroke-width: 0.8"/>
      </g>
     </g>
     <g id="text_28">
      <!-- −4 -->
      <g transform="translate(354.930824 155.508281) scale(0.22 -0.22)">
       <use xlink:href="#DejaVuSans-2212"/>
       <use xlink:href="#DejaVuSans-34" x="83.789062"/>
      </g>
     </g>
    </g>
    <g id="ytick_10">
     <g id="line2d_61">
      <g>
       <use xlink:href="#mf2f0ce2c90" x="394.363636" y="77.85" style="stroke: #000000; stroke-width: 0.8"/>
      </g>
     </g>
     <g id="text_29">
      <!-- −2 -->
      <g transform="translate(354.930824 86.208281) scale(0.22 -0.22)">
       <use xlink:href="#DejaVuSans-2212"/>
       <use xlink:href="#DejaVuSans-32" x="83.789062"/>
      </g>
     </g>
    </g>
    <g id="text_30">
     <!-- $y$ -->
     <g transform="translate(346.730824 187.8) rotate(-90) scale(0.2 -0.2)">
      <defs>
       <path id="DejaVuSans-Oblique-79" d="M 1588 -325 
Q 1188 -997 936 -1164 
Q 684 -1331 294 -1331 
L -159 -1331 
L -63 -850 
L 269 -850 
Q 509 -850 678 -719 
Q 847 -588 1056 -206 
L 1234 128 
L 459 3500 
L 1069 3500 
L 1650 819 
L 3256 3500 
L 3859 3500 
L 1588 -325 
z
" transform="scale(0.015625)"/>
      </defs>
      <use xlink:href="#DejaVuSans-Oblique-79" transform="translate(0 0.3125)"/>
     </g>
    </g>
   </g>
   <g id="line2d_62">
    <defs>
     <path id="me87210a34e" d="M 0 2.5 
C 0.663008 2.5 1.29895 2.236584 1.767767 1.767767 
C 2.236584 1.29895 2.5 0.663008 2.5 0 
C 2.5 -0.663008 2.236584 -1.29895 1.767767 -1.767767 
C 1.29895 -2.236584 0.663008 -2.5 0 -2.5 
C -0.663008 -2.5 -1.29895 -2.236584 -1.767767 -1.767767 
C -2.236584 -1.29895 -2.5 -0.663008 -2.5 0 
C -2.5 0.663008 -2.236584 1.29895 -1.767767 1.767767 
C -1.29895 2.236584 -0.663008 2.5 0 2.5 
z
" style="stroke: #ff0000"/>
    </defs>
    <g clip-path="url(#pd39491d8d3)">
     <use xlink:href="#me87210a34e" x="416.373403" y="169.870114" style="fill: #ff0000; stroke: #ff0000"/>
     <use xlink:href="#me87210a34e" x="522.181925" y="75.073586" style="fill: #ff0000; stroke: #ff0000"/>
     <use xlink:href="#me87210a34e" x="438.766285" y="162.750045" style="fill: #ff0000; stroke: #ff0000"/>
     <use xlink:href="#me87210a34e" x="598.899307" y="-1" style="fill: #ff0000; stroke: #ff0000"/>
    </g>
   </g>
   <g id="line2d_63">
    <path d="M 405.892562 196.486597 
L 597.958799 -1 
" clip-path="url(#pd39491d8d3)" style="fill: none; stroke: #0000ff; stroke-width: 3; stroke-linecap: square"/>
   </g>
   <g id="patch_8">
    <path d="M 394.363636 320.4 
L 394.363636 43.2 
" style="fill: none; stroke: #000000; stroke-width: 0.8; stroke-linejoin: miter; stroke-linecap: square"/>
   </g>
   <g id="patch_9">
    <path d="M 648 320.4 
L 648 43.2 
" style="fill: none; stroke: #000000; stroke-width: 0.8; stroke-linejoin: miter; stroke-linecap: square"/>
   </g>
   <g id="patch_10">
    <path d="M 394.363636 320.4 
L 648 320.4 
" style="fill: none; stroke: #000000; stroke-width: 0.8; stroke-linejoin: miter; stroke-linecap: square"/>
   </g>
   <g id="patch_11">
    <path d="M 394.363636 43.2 
L 648 43.2 
" style="fill: none; stroke: #000000; stroke-width: 0.8; stroke-linejoin: miter; stroke-linecap: square"/>
   </g>
   <g id="text_31">
    <!-- Best Fit -->
    <g transform="translate(484.134943 37.2) scale(0.2 -0.2)">
     <defs>
      <path id="DejaVuSans-42" d="M 1259 2228 
L 1259 519 
L 2272 519 
Q 2781 519 3026 730 
Q 3272 941 3272 1375 
Q 3272 1813 3026 2020 
Q 2781 2228 2272 2228 
L 1259 2228 
z
M 1259 4147 
L 1259 2741 
L 2194 2741 
Q 2656 2741 2882 2914 
Q 3109 3088 3109 3444 
Q 3109 3797 2882 3972 
Q 2656 4147 2194 4147 
L 1259 4147 
z
M 628 4666 
L 2241 4666 
Q 2963 4666 3353 4366 
Q 3744 4066 3744 3513 
Q 3744 3084 3544 2831 
Q 3344 2578 2956 2516 
Q 3422 2416 3680 2098 
Q 3938 1781 3938 1306 
Q 3938 681 3513 340 
Q 3088 0 2303 0 
L 628 0 
L 628 4666 
z
" transform="scale(0.015625)"/>
      <path id="DejaVuSans-73" d="M 2834 3397 
L 2834 2853 
Q 2591 2978 2328 3040 
Q 2066 3103 1784 3103 
Q 1356 3103 1142 2972 
Q 928 2841 928 2578 
Q 928 2378 1081 2264 
Q 1234 2150 1697 2047 
L 1894 2003 
Q 2506 1872 2764 1633 
Q 3022 1394 3022 966 
Q 3022 478 2636 193 
Q 2250 -91 1575 -91 
Q 1294 -91 989 -36 
Q 684 19 347 128 
L 347 722 
Q 666 556 975 473 
Q 1284 391 1588 391 
Q 1994 391 2212 530 
Q 2431 669 2431 922 
Q 2431 1156 2273 1281 
Q 2116 1406 1581 1522 
L 1381 1569 
Q 847 1681 609 1914 
Q 372 2147 372 2553 
Q 372 3047 722 3315 
Q 1072 3584 1716 3584 
Q 2034 3584 2315 3537 
Q 2597 3491 2834 3397 
z
" transform="scale(0.015625)"/>
      <path id="DejaVuSans-46" d="M 628 4666 
L 3309 4666 
L 3309 4134 
L 1259 4134 
L 1259 2759 
L 3109 2759 
L 3109 2228 
L 1259 2228 
L 1259 0 
L 628 0 
L 628 4666 
z
" transform="scale(0.015625)"/>
     </defs>
     <use xlink:href="#DejaVuSans-42"/>
     <use xlink:href="#DejaVuSans-65" x="68.603516"/>
     <use xlink:href="#DejaVuSans-73" x="130.126953"/>
     <use xlink:href="#DejaVuSans-74" x="182.226562"/>
     <use xlink:href="#DejaVuSans-20" x="221.435547"/>
     <use xlink:href="#DejaVuSans-46" x="253.222656"/>
     <use xlink:href="#DejaVuSans-69" x="303.492188"/>
     <use xlink:href="#DejaVuSans-74" x="331.275391"/>
    </g>
   </g>
  </g>
 </g>
 <defs>
  <clipPath id="pd6c45796ec">
   <rect x="90" y="43.2" width="253.636364" height="277.2"/>
  </clipPath>
  <clipPath id="pd39491d8d3">
   <rect x="394.363636" y="43.2" width="253.636364" height="277.2"/>
  </clipPath>
 </defs>
</svg>
